<?xml version="1.0" encoding="UTF-8"?>
<!--Generator: Apple Native CoreSVG 123-->
<!DOCTYPE svg
PUBLIC "-//W3C//DTD SVG 1.1//EN"
       "http://www.w3.org/Graphics/SVG/1.1/DTD/svg11.dtd">
<svg version="1.1" xmlns="http://www.w3.org/2000/svg" xmlns:xlink="http://www.w3.org/1999/xlink" width="3300" height="2200">
 <!--glyph: "uni100076.medium", point size: 100.000000, font version: "Version 15.0d7e11", template writer version: "5"-->
 <g id="Notes">
  <rect height="2200" id="artboard" style="fill:white;opacity:1" width="3300" x="0" y="0"/>
  <line id="" style="fill:none;stroke:black;opacity:1;stroke-width:0.5;" x1="263" x2="3036" y1="292" y2="292"/>
  <text style="stroke:none;fill:black;font-family:-apple-system,&quot;SF Pro Display&quot;,&quot;SF Pro Text&quot;,Helvetica,sans-serif;font-weight:bold;" transform="matrix(1 0 0 1 263 322)">Weight/Scale Variations</text>
  <text style="stroke:none;fill:black;font-family:-apple-system,&quot;SF Pro Display&quot;,&quot;SF Pro Text&quot;,Helvetica,sans-serif;text-anchor:middle;" transform="matrix(1 0 0 1 559.711 322)">Ultralight</text>
  <text style="stroke:none;fill:black;font-family:-apple-system,&quot;SF Pro Display&quot;,&quot;SF Pro Text&quot;,Helvetica,sans-serif;text-anchor:middle;" transform="matrix(1 0 0 1 856.422 322)">Thin</text>
  <text style="stroke:none;fill:black;font-family:-apple-system,&quot;SF Pro Display&quot;,&quot;SF Pro Text&quot;,Helvetica,sans-serif;text-anchor:middle;" transform="matrix(1 0 0 1 1153.13 322)">Light</text>
  <text style="stroke:none;fill:black;font-family:-apple-system,&quot;SF Pro Display&quot;,&quot;SF Pro Text&quot;,Helvetica,sans-serif;text-anchor:middle;" transform="matrix(1 0 0 1 1449.84 322)">Regular</text>
  <text style="stroke:none;fill:black;font-family:-apple-system,&quot;SF Pro Display&quot;,&quot;SF Pro Text&quot;,Helvetica,sans-serif;text-anchor:middle;" transform="matrix(1 0 0 1 1746.56 322)">Medium</text>
  <text style="stroke:none;fill:black;font-family:-apple-system,&quot;SF Pro Display&quot;,&quot;SF Pro Text&quot;,Helvetica,sans-serif;text-anchor:middle;" transform="matrix(1 0 0 1 2043.27 322)">Semibold</text>
  <text style="stroke:none;fill:black;font-family:-apple-system,&quot;SF Pro Display&quot;,&quot;SF Pro Text&quot;,Helvetica,sans-serif;text-anchor:middle;" transform="matrix(1 0 0 1 2339.98 322)">Bold</text>
  <text style="stroke:none;fill:black;font-family:-apple-system,&quot;SF Pro Display&quot;,&quot;SF Pro Text&quot;,Helvetica,sans-serif;text-anchor:middle;" transform="matrix(1 0 0 1 2636.69 322)">Heavy</text>
  <text style="stroke:none;fill:black;font-family:-apple-system,&quot;SF Pro Display&quot;,&quot;SF Pro Text&quot;,Helvetica,sans-serif;text-anchor:middle;" transform="matrix(1 0 0 1 2933.4 322)">Black</text>
  <line id="" style="fill:none;stroke:black;opacity:1;stroke-width:0.5;" x1="263" x2="3036" y1="1903" y2="1903"/>
  <g id="" transform="matrix(1 0 0 1 263 1933)">
   <path d="M 9.24805 0.830078 C 13.5547 0.830078 17.1387 -2.74414 17.1387 -7.05078 C 17.1387 -11.3574 13.5449 -14.9316 9.23828 -14.9316 C 4.94141 -14.9316 1.36719 -11.3574 1.36719 -7.05078 C 1.36719 -2.74414 4.95117 0.830078 9.24805 0.830078 Z M 9.24805 -0.654297 C 5.70312 -0.654297 2.87109 -3.49609 2.87109 -7.05078 C 2.87109 -10.6055 5.69336 -13.4473 9.23828 -13.4473 C 12.793 -13.4473 15.6348 -10.6055 15.6445 -7.05078 C 15.6543 -3.49609 12.8027 -0.654297 9.24805 -0.654297 Z M 9.22852 -3.42773 C 9.69727 -3.42773 9.9707 -3.74023 9.9707 -4.25781 L 9.9707 -6.31836 L 12.1973 -6.31836 C 12.6953 -6.31836 13.0371 -6.57227 13.0371 -7.04102 C 13.0371 -7.51953 12.7148 -7.7832 12.1973 -7.7832 L 9.9707 -7.7832 L 9.9707 -10.0098 C 9.9707 -10.5273 9.69727 -10.8496 9.22852 -10.8496 C 8.75977 -10.8496 8.50586 -10.5078 8.50586 -10.0098 L 8.50586 -7.7832 L 6.29883 -7.7832 C 5.78125 -7.7832 5.44922 -7.51953 5.44922 -7.04102 C 5.44922 -6.57227 5.80078 -6.31836 6.29883 -6.31836 L 8.50586 -6.31836 L 8.50586 -4.25781 C 8.50586 -3.75977 8.75977 -3.42773 9.22852 -3.42773 Z"/>
  </g>
  <g id="" transform="matrix(1 0 0 1 281.506 1933)">
   <path d="M 11.709 2.91016 C 17.1582 2.91016 21.6699 -1.60156 21.6699 -7.05078 C 21.6699 -12.4902 17.1484 -17.0117 11.6992 -17.0117 C 6.25977 -17.0117 1.74805 -12.4902 1.74805 -7.05078 C 1.74805 -1.60156 6.26953 2.91016 11.709 2.91016 Z M 11.709 1.25 C 7.09961 1.25 3.41797 -2.44141 3.41797 -7.05078 C 3.41797 -11.6504 7.08984 -15.3516 11.6992 -15.3516 C 16.3086 -15.3516 20 -11.6504 20.0098 -7.05078 C 20.0195 -2.44141 16.3184 1.25 11.709 1.25 Z M 11.6895 -2.41211 C 12.207 -2.41211 12.5195 -2.77344 12.5195 -3.33984 L 12.5195 -6.23047 L 15.5762 -6.23047 C 16.123 -6.23047 16.5039 -6.51367 16.5039 -7.03125 C 16.5039 -7.55859 16.1426 -7.86133 15.5762 -7.86133 L 12.5195 -7.86133 L 12.5195 -10.9277 C 12.5195 -11.5039 12.207 -11.8555 11.6895 -11.8555 C 11.1719 -11.8555 10.8789 -11.4844 10.8789 -10.9277 L 10.8789 -7.86133 L 7.83203 -7.86133 C 7.26562 -7.86133 6.89453 -7.55859 6.89453 -7.03125 C 6.89453 -6.51367 7.28516 -6.23047 7.83203 -6.23047 L 10.8789 -6.23047 L 10.8789 -3.33984 C 10.8789 -2.79297 11.1719 -2.41211 11.6895 -2.41211 Z"/>
  </g>
  <g id="" transform="matrix(1 0 0 1 304.924 1933)">
   <path d="M 14.9707 5.67383 C 21.9336 5.67383 27.6953 -0.078125 27.6953 -7.04102 C 27.6953 -14.0039 21.9238 -19.7559 14.9609 -19.7559 C 8.00781 -19.7559 2.25586 -14.0039 2.25586 -7.04102 C 2.25586 -0.078125 8.01758 5.67383 14.9707 5.67383 Z M 14.9707 3.85742 C 8.93555 3.85742 4.08203 -1.00586 4.08203 -7.04102 C 4.08203 -13.0762 8.92578 -17.9395 14.9609 -17.9395 C 21.0059 -17.9395 25.8594 -13.0762 25.8691 -7.04102 C 25.8789 -1.00586 21.0156 3.85742 14.9707 3.85742 Z M 14.9512 -1.06445 C 15.5176 -1.06445 15.8691 -1.45508 15.8691 -2.06055 L 15.8691 -6.13281 L 20.1074 -6.13281 C 20.6934 -6.13281 21.1133 -6.46484 21.1133 -7.02148 C 21.1133 -7.59766 20.7227 -7.93945 20.1074 -7.93945 L 15.8691 -7.93945 L 15.8691 -12.1875 C 15.8691 -12.8027 15.5176 -13.1934 14.9512 -13.1934 C 14.3848 -13.1934 14.0625 -12.7832 14.0625 -12.1875 L 14.0625 -7.93945 L 9.83398 -7.93945 C 9.21875 -7.93945 8.80859 -7.59766 8.80859 -7.02148 C 8.80859 -6.46484 9.23828 -6.13281 9.83398 -6.13281 L 14.0625 -6.13281 L 14.0625 -2.06055 C 14.0625 -1.47461 14.3848 -1.06445 14.9512 -1.06445 Z"/>
  </g>
  <text style="stroke:none;fill:black;font-family:-apple-system,&quot;SF Pro Display&quot;,&quot;SF Pro Text&quot;,Helvetica,sans-serif;font-weight:bold;" transform="matrix(1 0 0 1 263 1953)">Design Variations</text>
  <text style="stroke:none;fill:black;font-family:-apple-system,&quot;SF Pro Display&quot;,&quot;SF Pro Text&quot;,Helvetica,sans-serif;" transform="matrix(1 0 0 1 263 1971)">Symbols are supported in up to nine weights and three scales.</text>
  <text style="stroke:none;fill:black;font-family:-apple-system,&quot;SF Pro Display&quot;,&quot;SF Pro Text&quot;,Helvetica,sans-serif;" transform="matrix(1 0 0 1 263 1989)">For optimal layout with text and other symbols, vertically align</text>
  <text style="stroke:none;fill:black;font-family:-apple-system,&quot;SF Pro Display&quot;,&quot;SF Pro Text&quot;,Helvetica,sans-serif;" transform="matrix(1 0 0 1 263 2007)">symbols with the adjacent text.</text>
  <rect height="14" id="" style="fill:#00AEEF;stroke:none;opacity:0.4;" width="3" x="776" y="1919"/>
  <g id="" transform="matrix(1 0 0 1 779 1933)">
   <path d="M 10.5273 0 L 12.373 0 L 7.17773 -14.0918 L 5.43945 -14.0918 L 0.244141 0 L 2.08984 0 L 3.50586 -4.0332 L 9.11133 -4.0332 Z M 6.2793 -11.9531 L 6.33789 -11.9531 L 8.59375 -5.52734 L 4.02344 -5.52734 Z"/>
  </g>
  <rect height="14" id="" style="fill:#00AEEF;stroke:none;opacity:0.4;" width="3" x="791.617" y="1919"/>
  <text style="stroke:none;fill:black;font-family:-apple-system,&quot;SF Pro Display&quot;,&quot;SF Pro Text&quot;,Helvetica,sans-serif;font-weight:bold;" transform="matrix(1 0 0 1 776 1953)">Margins</text>
  <text style="stroke:none;fill:black;font-family:-apple-system,&quot;SF Pro Display&quot;,&quot;SF Pro Text&quot;,Helvetica,sans-serif;" transform="matrix(1 0 0 1 776 1971)">Leading and trailing margins on the left and right side of each symbol</text>
  <text style="stroke:none;fill:black;font-family:-apple-system,&quot;SF Pro Display&quot;,&quot;SF Pro Text&quot;,Helvetica,sans-serif;" transform="matrix(1 0 0 1 776 1989)">can be adjusted by modifying the width of the blue rectangles.</text>
  <text style="stroke:none;fill:black;font-family:-apple-system,&quot;SF Pro Display&quot;,&quot;SF Pro Text&quot;,Helvetica,sans-serif;" transform="matrix(1 0 0 1 776 2007)">Modifications are automatically applied proportionally to all</text>
  <text style="stroke:none;fill:black;font-family:-apple-system,&quot;SF Pro Display&quot;,&quot;SF Pro Text&quot;,Helvetica,sans-serif;" transform="matrix(1 0 0 1 776 2025)">scales and weights.</text>
  <g id="" transform="matrix(1 0 0 1 1289 1933)">
   <path d="M 2.83203 3.11523 L 4.375 4.6582 C 5.22461 5.48828 6.19141 5.41992 7.06055 4.46289 L 17.2754 -6.66016 C 17.7051 -6.36719 18.0957 -6.37695 18.5645 -6.47461 L 19.6094 -6.68945 L 20.3027 -5.99609 L 20.2539 -5.47852 C 20.1855 -4.95117 20.3516 -4.53125 20.8496 -4.0332 L 21.6602 -3.22266 C 22.168 -2.71484 22.8223 -2.68555 23.3008 -3.16406 L 26.5527 -6.41602 C 27.0312 -6.89453 27.0117 -7.54883 26.5039 -8.05664 L 25.6836 -8.87695 C 25.1855 -9.375 24.7754 -9.55078 24.2383 -9.47266 L 23.7109 -9.41406 L 23.0566 -10.0781 L 23.3398 -11.2207 C 23.4863 -11.7871 23.3398 -12.2559 22.7148 -12.8613 L 20.3027 -15.2539 C 16.7578 -18.7793 12.2266 -18.6719 9.11133 -15.5371 C 8.69141 -15.1074 8.64258 -14.5215 8.91602 -14.0918 C 9.15039 -13.7207 9.62891 -13.4961 10.2734 -13.6621 C 11.7871 -14.043 13.3008 -13.9258 14.7852 -12.9199 L 14.1602 -11.3379 C 13.9258 -10.752 13.9453 -10.2734 14.1797 -9.83398 L 3.01758 0.439453 C 2.08008 1.30859 1.97266 2.25586 2.83203 3.11523 Z M 10.6738 -15.1465 C 13.3398 -17.1387 16.6504 -16.8262 19.0527 -14.4141 L 21.6797 -11.8066 C 21.9141 -11.5723 21.9434 -11.3867 21.8848 -11.0938 L 21.5039 -9.53125 L 23.0762 -7.95898 L 24.043 -8.04688 C 24.3262 -8.07617 24.4141 -8.05664 24.6387 -7.83203 L 25.2637 -7.20703 L 22.5098 -4.46289 L 21.8848 -5.07812 C 21.6602 -5.30273 21.6406 -5.40039 21.6699 -5.68359 L 21.7578 -6.64062 L 20.1953 -8.20312 L 18.5742 -7.89062 C 18.291 -7.83203 18.1445 -7.83203 17.9102 -8.07617 L 15.7324 -10.2539 C 15.5078 -10.4883 15.4785 -10.625 15.6055 -10.9473 L 16.5527 -13.2227 C 14.9512 -14.7559 12.8418 -15.6055 10.8008 -14.9512 C 10.7129 -14.9219 10.6445 -14.9414 10.6152 -14.9805 C 10.5859 -15.0293 10.5859 -15.0781 10.6738 -15.1465 Z M 4.10156 2.41211 C 3.61328 1.91406 3.78906 1.61133 4.12109 1.30859 L 15.0781 -8.80859 L 16.3086 -7.57812 L 6.15234 3.34961 C 5.84961 3.68164 5.46875 3.7793 5.06836 3.37891 Z"/>
  </g>
  <text style="stroke:none;fill:black;font-family:-apple-system,&quot;SF Pro Display&quot;,&quot;SF Pro Text&quot;,Helvetica,sans-serif;font-weight:bold;" transform="matrix(1 0 0 1 1289 1953)">Exporting</text>
  <text style="stroke:none;fill:black;font-family:-apple-system,&quot;SF Pro Display&quot;,&quot;SF Pro Text&quot;,Helvetica,sans-serif;" transform="matrix(1 0 0 1 1289 1971)">Symbols should be outlined when exporting to ensure the</text>
  <text style="stroke:none;fill:black;font-family:-apple-system,&quot;SF Pro Display&quot;,&quot;SF Pro Text&quot;,Helvetica,sans-serif;" transform="matrix(1 0 0 1 1289 1989)">design is preserved when submitting to Xcode.</text>
  <text id="template-version" style="stroke:none;fill:black;font-family:-apple-system,&quot;SF Pro Display&quot;,&quot;SF Pro Text&quot;,Helvetica,sans-serif;text-anchor:end;" transform="matrix(1 0 0 1 3036 1933)">Template v.1.0</text>
  <text style="stroke:none;fill:black;font-family:-apple-system,&quot;SF Pro Display&quot;,&quot;SF Pro Text&quot;,Helvetica,sans-serif;text-anchor:end;" transform="matrix(1 0 0 1 3036 1951)">Generated from arrow.up.circle</text>
  <text style="stroke:none;fill:black;font-family:-apple-system,&quot;SF Pro Display&quot;,&quot;SF Pro Text&quot;,Helvetica,sans-serif;text-anchor:end;" transform="matrix(1 0 0 1 3036 1969)">Typeset at 100 points</text>
  <text style="stroke:none;fill:black;font-family:-apple-system,&quot;SF Pro Display&quot;,&quot;SF Pro Text&quot;,Helvetica,sans-serif;" transform="matrix(1 0 0 1 263 726)">Small</text>
  <text style="stroke:none;fill:black;font-family:-apple-system,&quot;SF Pro Display&quot;,&quot;SF Pro Text&quot;,Helvetica,sans-serif;" transform="matrix(1 0 0 1 263 1156)">Medium</text>
  <text style="stroke:none;fill:black;font-family:-apple-system,&quot;SF Pro Display&quot;,&quot;SF Pro Text&quot;,Helvetica,sans-serif;" transform="matrix(1 0 0 1 263 1586)">Large</text>
 </g>
 <g id="Guides">
  <g id="H-reference" style="fill:#27AAE1;stroke:none;" transform="matrix(1 0 0 1 339 696)">
   <path d="M 54.9316 0 L 57.666 0 L 30.5664 -70.459 L 28.0762 -70.459 L 0.976562 0 L 3.66211 0 L 12.9395 -24.4629 L 45.7031 -24.4629 Z M 29.1992 -67.0898 L 29.4434 -67.0898 L 44.8242 -26.709 L 13.8184 -26.709 Z"/>
  </g>
  <line id="Baseline-S" style="fill:none;stroke:#27AAE1;opacity:1;stroke-width:0.577;" x1="263" x2="3036" y1="696" y2="696"/>
  <line id="Capline-S" style="fill:none;stroke:#27AAE1;opacity:1;stroke-width:0.577;" x1="263" x2="3036" y1="625.541" y2="625.541"/>
  <g id="H-reference" style="fill:#27AAE1;stroke:none;" transform="matrix(1 0 0 1 339 1126)">
   <path d="M 54.9316 0 L 57.666 0 L 30.5664 -70.459 L 28.0762 -70.459 L 0.976562 0 L 3.66211 0 L 12.9395 -24.4629 L 45.7031 -24.4629 Z M 29.1992 -67.0898 L 29.4434 -67.0898 L 44.8242 -26.709 L 13.8184 -26.709 Z"/>
  </g>
  <line id="Baseline-M" style="fill:none;stroke:#27AAE1;opacity:1;stroke-width:0.577;" x1="263" x2="3036" y1="1126" y2="1126"/>
  <line id="Capline-M" style="fill:none;stroke:#27AAE1;opacity:1;stroke-width:0.577;" x1="263" x2="3036" y1="1055.54" y2="1055.54"/>
  <g id="H-reference" style="fill:#27AAE1;stroke:none;" transform="matrix(1 0 0 1 339 1556)">
   <path d="M 54.9316 0 L 57.666 0 L 30.5664 -70.459 L 28.0762 -70.459 L 0.976562 0 L 3.66211 0 L 12.9395 -24.4629 L 45.7031 -24.4629 Z M 29.1992 -67.0898 L 29.4434 -67.0898 L 44.8242 -26.709 L 13.8184 -26.709 Z"/>
  </g>
  <line id="Baseline-L" style="fill:none;stroke:#27AAE1;opacity:1;stroke-width:0.577;" x1="263" x2="3036" y1="1556" y2="1556"/>
  <line id="Capline-L" style="fill:none;stroke:#27AAE1;opacity:1;stroke-width:0.577;" x1="263" x2="3036" y1="1485.54" y2="1485.54"/>
  <rect height="119.336" id="left-margin" style="fill:#00AEEF;stroke:none;opacity:0.4;" width="8.74023" x="1391.3" y="1030.79"/>
  <rect height="119.336" id="right-margin" style="fill:#00AEEF;stroke:none;opacity:0.4;" width="8.74023" x="1499.65" y="1030.79"/>
 </g>
 <g id="Symbols">
  <g id="Black-L" transform="matrix(1 0 0 1 2854.05 1556)">
   <path d="M 79.3457 32.8613 C 116.748 32.8613 147.412 2.19727 147.412 -35.2051 C 147.412 -72.6074 116.748 -103.271 79.2969 -103.271 C 41.8945 -103.271 11.2793 -72.6074 11.2793 -35.2051 C 11.2793 2.19727 41.9434 32.8613 79.3457 32.8613 Z M 79.3457 12.4023 C 52.9785 12.4023 31.7383 -8.83789 31.7383 -35.2051 C 31.7383 -61.5723 52.9297 -82.8125 79.2969 -82.8125 C 105.664 -82.8125 126.953 -61.5723 126.953 -35.2051 C 127.002 -8.83789 105.713 12.4023 79.3457 12.4023 Z M 79.3457 -68.2617 C 76.4648 -68.2617 74.1211 -67.1875 72.2168 -65.0879 L 52.1973 -43.7988 C 50.5371 -41.9922 49.9512 -40.4297 49.9512 -38.1348 C 49.9512 -34.082 52.9297 -31.25 57.2266 -31.25 C 59.3262 -31.25 61.4258 -32.1777 62.5977 -33.6426 L 68.0176 -40.1367 L 71.5332 -45.5078 L 70.7031 -33.4473 L 70.7031 -10.2051 C 70.7031 -5.51758 74.5117 -2.19727 79.3457 -2.19727 C 84.1797 -2.19727 87.9883 -5.51758 87.9883 -10.2051 L 87.9883 -33.4473 L 87.1094 -45.5566 L 90.7227 -39.8926 L 96.0938 -33.6426 C 97.3145 -32.1777 99.4141 -31.25 101.465 -31.25 C 105.762 -31.25 108.74 -34.082 108.74 -38.1348 C 108.74 -40.4297 108.154 -41.9922 106.445 -43.7988 L 86.5234 -65.0879 C 84.5703 -67.1875 82.2754 -68.2617 79.3457 -68.2617 Z"/>
  </g>
  <g id="Heavy-L" transform="matrix(1 0 0 1 2558.39 1556)">
   <path d="M 78.2715 31.7871 C 115.088 31.7871 145.312 1.61133 145.312 -35.2051 C 145.312 -72.0215 115.039 -102.197 78.2715 -102.197 C 41.4551 -102.197 11.2793 -72.0215 11.2793 -35.2051 C 11.2793 1.61133 41.5039 31.7871 78.2715 31.7871 Z M 78.2715 14.0137 C 51.0254 14.0137 29.0527 -7.95898 29.0527 -35.2051 C 29.0527 -62.5 50.9766 -84.4727 78.2715 -84.4727 C 105.518 -84.4727 127.49 -62.5 127.539 -35.2051 C 127.539 -7.95898 105.566 14.0137 78.2715 14.0137 Z M 78.2715 -68.1152 C 75.7812 -68.1152 73.8281 -67.1875 72.0703 -65.332 L 51.6113 -43.8965 C 50.1953 -42.334 49.6094 -40.918 49.6094 -38.8672 C 49.6094 -35.3027 52.2949 -32.7148 56.1035 -32.7148 C 58.0078 -32.7148 59.8145 -33.5449 60.8887 -34.8633 L 67.1875 -41.9434 L 71.4844 -47.8516 L 70.7031 -35.791 L 70.7031 -9.375 C 70.7031 -5.27344 74.0234 -2.34375 78.2715 -2.34375 C 82.5684 -2.34375 85.8398 -5.27344 85.8398 -9.375 L 85.8398 -35.791 L 85.1074 -47.9004 L 89.4531 -41.748 L 95.6543 -34.8633 C 96.8262 -33.4961 98.6328 -32.7148 100.488 -32.7148 C 104.297 -32.7148 106.982 -35.3027 106.982 -38.8672 C 106.982 -40.918 106.396 -42.334 104.98 -43.8965 L 84.5215 -65.332 C 82.8125 -67.1875 80.8105 -68.1152 78.2715 -68.1152 Z"/>
  </g>
  <g id="Bold-L" transform="matrix(1 0 0 1 2262.88 1556)">
   <path d="M 77.0996 30.6152 C 113.232 30.6152 142.92 0.878906 142.92 -35.2051 C 142.92 -71.3379 113.184 -101.025 77.0508 -101.025 C 40.9668 -101.025 11.2793 -71.3379 11.2793 -35.2051 C 11.2793 0.878906 41.0156 30.6152 77.0996 30.6152 Z M 77.0996 15.8691 C 48.8281 15.8691 26.0742 -6.93359 26.0742 -35.2051 C 26.0742 -63.4766 48.7793 -86.2793 77.0508 -86.2793 C 105.371 -86.2793 128.125 -63.4766 128.174 -35.2051 C 128.174 -6.93359 105.371 15.8691 77.0996 15.8691 Z M 77.0996 -67.9688 C 75.0977 -67.9688 73.4863 -67.1875 71.9727 -65.625 L 50.9277 -43.9453 C 49.7559 -42.6758 49.2676 -41.4062 49.2676 -39.7461 C 49.2676 -36.6211 51.6113 -34.3262 54.834 -34.3262 C 56.4941 -34.3262 58.0078 -35.0098 58.9844 -36.1328 L 66.2598 -43.9453 L 71.3867 -50.4883 L 70.752 -38.3789 L 70.752 -8.49609 C 70.752 -4.98047 73.4863 -2.49023 77.0996 -2.49023 C 80.7129 -2.49023 83.4473 -4.98047 83.4473 -8.49609 L 83.4473 -38.3789 L 82.8125 -50.5371 L 88.0371 -43.8477 L 95.2148 -36.1328 C 96.2402 -35.0098 97.7539 -34.3262 99.3652 -34.3262 C 102.637 -34.3262 104.98 -36.6211 104.98 -39.7461 C 104.98 -41.4062 104.492 -42.6758 103.271 -43.9453 L 82.2754 -65.625 C 80.8105 -67.1875 79.1504 -67.9688 77.0996 -67.9688 Z"/>
  </g>
  <g id="Semibold-L" transform="matrix(1 0 0 1 1966.97 1556)">
   <path d="M 76.2695 29.7852 C 111.914 29.7852 141.309 0.439453 141.309 -35.2051 C 141.309 -70.8496 111.865 -100.244 76.2695 -100.244 C 40.625 -100.244 11.2793 -70.8496 11.2793 -35.2051 C 11.2793 0.439453 40.6738 29.7852 76.2695 29.7852 Z M 76.2695 17.0898 C 47.3145 17.0898 24.0234 -6.25 24.0234 -35.2051 C 24.0234 -64.209 47.2656 -87.5 76.2695 -87.5 C 105.225 -87.5 128.564 -64.209 128.613 -35.2051 C 128.662 -6.25 105.273 17.0898 76.2695 17.0898 Z M 76.2695 -67.8223 C 74.6094 -67.8223 73.2422 -67.1875 71.9238 -65.8203 L 50.4883 -43.9941 C 49.4629 -42.9199 49.0234 -41.7969 49.0234 -40.2832 C 49.0234 -37.5 51.123 -35.4492 54.0039 -35.4492 C 55.4688 -35.4492 56.7871 -36.084 57.666 -37.0605 L 65.625 -45.3613 L 71.3379 -52.2949 L 70.752 -40.1367 L 70.752 -7.91016 C 70.752 -4.78516 73.1445 -2.58789 76.2695 -2.58789 C 79.4434 -2.58789 81.7871 -4.78516 81.7871 -7.91016 L 81.7871 -40.1367 L 81.25 -52.3926 L 87.0605 -45.2637 L 94.9219 -37.0605 C 95.8496 -36.0352 97.168 -35.4492 98.584 -35.4492 C 101.465 -35.4492 103.613 -37.5 103.613 -40.2832 C 103.613 -41.7969 103.125 -42.9199 102.1 -43.9941 L 80.7129 -65.8203 C 79.4434 -67.1387 78.0273 -67.8223 76.2695 -67.8223 Z"/>
  </g>
  <g id="Medium-L" transform="matrix(1 0 0 1 1670.87 1556)">
   <path d="M 75.6836 29.1992 C 110.938 29.1992 140.088 0.0488281 140.088 -35.2051 C 140.088 -70.459 110.889 -99.6094 75.6348 -99.6094 C 40.3809 -99.6094 11.2793 -70.459 11.2793 -35.2051 C 11.2793 0.0488281 40.3809 29.1992 75.6836 29.1992 Z M 75.6836 18.0664 C 46.1426 18.0664 22.4609 -5.71289 22.4609 -35.2051 C 22.4609 -64.6973 46.1426 -88.4766 75.6348 -88.4766 C 105.127 -88.4766 128.906 -64.6973 128.906 -35.2051 C 128.955 -5.71289 105.176 18.0664 75.6836 18.0664 Z M 75.6836 -67.7734 C 74.2188 -67.7734 73.0469 -67.1875 71.8262 -65.9668 L 50.1465 -44.043 C 49.2676 -43.1152 48.8281 -42.0898 48.8281 -40.7227 C 48.8281 -38.2324 50.7812 -36.3281 53.3691 -36.3281 C 54.6875 -36.3281 55.8594 -36.8652 56.6895 -37.7441 L 65.1367 -46.4355 L 71.2891 -53.6621 L 70.8008 -41.5039 L 70.8008 -7.42188 C 70.8008 -4.63867 72.8516 -2.63672 75.6836 -2.63672 C 78.5156 -2.63672 80.5664 -4.63867 80.5664 -7.42188 L 80.5664 -41.5039 L 80.0781 -53.7598 L 86.2793 -46.3867 L 94.6777 -37.7441 C 95.5078 -36.8164 96.6797 -36.3281 98.0469 -36.3281 C 100.635 -36.3281 102.588 -38.2324 102.588 -40.7227 C 102.588 -42.0898 102.148 -43.1152 101.221 -44.043 L 79.541 -65.9668 C 78.3691 -67.1387 77.1973 -67.7734 75.6836 -67.7734 Z"/>
  </g>
  <g id="Regular-L" transform="matrix(1 0 0 1 1374.97 1556)">
   <path d="M 74.8535 28.3691 C 109.668 28.3691 138.477 -0.390625 138.477 -35.2051 C 138.477 -70.0195 109.619 -98.7793 74.8047 -98.7793 C 40.0391 -98.7793 11.2793 -70.0195 11.2793 -35.2051 C 11.2793 -0.390625 40.0879 28.3691 74.8535 28.3691 Z M 74.8535 19.2871 C 44.6777 19.2871 20.4102 -5.0293 20.4102 -35.2051 C 20.4102 -65.3809 44.6289 -89.6973 74.8047 -89.6973 C 105.029 -89.6973 129.297 -65.3809 129.346 -35.2051 C 129.395 -5.0293 105.078 19.2871 74.8535 19.2871 Z M 74.8535 -67.627 C 73.7305 -67.627 72.8516 -67.1875 71.7773 -66.1133 L 49.6582 -44.0918 C 48.9746 -43.4082 48.584 -42.4316 48.584 -41.3086 C 48.584 -39.1113 50.293 -37.4512 52.4902 -37.4512 C 53.6621 -37.4512 54.6387 -37.8906 55.3711 -38.623 L 64.502 -47.8027 L 71.2402 -55.4688 L 70.8008 -43.2617 L 70.8008 -6.78711 C 70.8008 -4.44336 72.5098 -2.73438 74.8535 -2.73438 C 77.2461 -2.73438 78.9062 -4.44336 78.9062 -6.78711 L 78.9062 -43.2617 L 78.5156 -55.5664 L 85.3027 -47.8027 L 94.3848 -38.623 C 95.1172 -37.8418 96.0938 -37.4512 97.2656 -37.4512 C 99.4629 -37.4512 101.221 -39.1113 101.221 -41.3086 C 101.221 -42.4316 100.83 -43.4082 100.098 -44.0918 L 78.0273 -66.1133 C 77.002 -67.1387 76.0742 -67.627 74.8535 -67.627 Z"/>
  </g>
  <g id="Light-L" transform="matrix(1 0 0 1 1079.18 1556)">
   <path d="M 73.9258 27.4902 C 108.301 27.4902 136.621 -0.830078 136.621 -35.1562 C 136.621 -69.5312 108.252 -97.8516 73.9258 -97.8516 C 39.5508 -97.8516 11.2793 -69.5312 11.2793 -35.1562 C 11.2793 -0.830078 39.5996 27.4902 73.9258 27.4902 Z M 73.9258 20.6055 C 43.1152 20.6055 18.2129 -4.3457 18.2129 -35.1562 C 18.2129 -66.0156 43.0664 -90.918 73.9258 -90.918 C 104.736 -90.918 129.688 -66.0156 129.736 -35.1562 C 129.736 -4.3457 104.785 20.6055 73.9258 20.6055 Z M 73.9258 -67.627 C 73.0957 -67.627 72.3633 -67.2852 71.582 -66.5039 L 48.5352 -43.457 C 47.998 -42.9199 47.7051 -42.1875 47.7051 -41.3086 C 47.7051 -39.6484 48.9746 -38.3301 50.7324 -38.3301 C 51.6113 -38.3301 52.3438 -38.6719 52.9785 -39.3066 L 63.8184 -50.1953 L 71.0938 -58.0078 L 70.752 -47.2656 L 70.752 -5.9082 C 70.752 -4.00391 72.1191 -2.73438 73.9258 -2.73438 C 75.8301 -2.73438 77.0996 -4.00391 77.0996 -5.9082 L 77.0996 -47.2656 L 76.8066 -58.1055 L 84.1797 -50.1953 L 94.9707 -39.3066 C 95.6055 -38.6719 96.3379 -38.3301 97.2168 -38.3301 C 98.9258 -38.3301 100.293 -39.6484 100.293 -41.3086 C 100.293 -42.1875 99.9512 -42.9199 99.3652 -43.457 L 76.3184 -66.5039 C 75.5859 -67.2363 74.8535 -67.627 73.9258 -67.627 Z"/>
  </g>
  <g id="Thin-L" transform="matrix(1 0 0 1 783.693 1556)">
   <path d="M 72.7051 26.3184 C 106.494 26.3184 134.18 -1.36719 134.18 -35.1074 C 134.18 -68.8965 106.494 -96.582 72.7051 -96.582 C 38.9648 -96.582 11.2793 -68.8965 11.2793 -35.1074 C 11.2793 -1.36719 38.9648 26.3184 72.7051 26.3184 Z M 72.7051 22.3145 C 41.0156 22.3145 15.2832 -3.41797 15.2832 -35.1074 C 15.2832 -66.8457 41.0156 -92.5781 72.7051 -92.5781 C 104.395 -92.5781 130.176 -66.8457 130.176 -35.1074 C 130.176 -3.41797 104.443 22.3145 72.7051 22.3145 Z M 72.7051 -67.627 C 72.2168 -67.627 71.7773 -67.3828 71.3379 -66.9922 L 47.0703 -42.627 C 46.6797 -42.2852 46.4844 -41.8457 46.4844 -41.3086 C 46.4844 -40.332 47.2656 -39.5508 48.3398 -39.5508 C 48.9258 -39.5508 49.3164 -39.7461 49.7559 -40.1855 L 62.8906 -53.3203 L 70.8984 -61.377 L 70.7031 -52.5391 L 70.7031 -4.6875 C 70.7031 -3.4668 71.582 -2.68555 72.7051 -2.68555 C 73.9258 -2.68555 74.707 -3.4668 74.707 -4.6875 L 74.707 -52.5391 L 74.5117 -61.4746 L 82.6172 -53.3203 L 95.752 -40.1855 C 96.1914 -39.7461 96.6309 -39.5508 97.168 -39.5508 C 98.2422 -39.5508 99.0234 -40.332 99.0234 -41.3086 C 99.0234 -41.8457 98.8281 -42.2852 98.4375 -42.627 L 74.1211 -66.9922 C 73.6816 -67.3828 73.2422 -67.627 72.7051 -67.627 Z"/>
  </g>
  <g id="Ultralight-L" transform="matrix(1 0 0 1 487.616 1556)">
   <path d="M 72.1191 25.7324 C 105.566 25.7324 132.91 -1.61133 132.91 -35.1074 C 132.91 -68.5547 105.566 -95.8984 72.1191 -95.8984 C 38.623 -95.8984 11.2793 -68.5547 11.2793 -35.1074 C 11.2793 -1.61133 38.623 25.7324 72.1191 25.7324 Z M 72.1191 23.2422 C 39.9414 23.2422 13.7695 -2.97852 13.7695 -35.1074 C 13.7695 -67.2363 39.9414 -93.4082 72.1191 -93.4082 C 104.248 -93.4082 130.42 -67.2363 130.42 -35.1074 C 130.42 -2.97852 104.248 23.2422 72.1191 23.2422 Z M 72.1191 -67.5781 C 71.7773 -67.5781 71.4355 -67.4805 71.1914 -67.2363 L 46.2891 -42.2363 C 46.0449 -41.9434 45.8984 -41.6992 45.8984 -41.3086 C 45.8984 -40.6738 46.3867 -40.1367 47.1191 -40.1367 C 47.5098 -40.1367 47.7539 -40.2832 48.1445 -40.625 L 62.4512 -54.9316 L 70.8496 -63.1348 L 70.7031 -55.2246 L 70.7031 -4.10156 C 70.7031 -3.22266 71.2891 -2.68555 72.1191 -2.68555 C 72.998 -2.68555 73.4863 -3.22266 73.4863 -4.10156 L 73.4863 -55.2246 L 73.3887 -63.1836 L 81.8359 -54.9316 L 96.1426 -40.625 C 96.5332 -40.2832 96.7773 -40.1367 97.168 -40.1367 C 97.9004 -40.1367 98.3887 -40.6738 98.3887 -41.3086 C 98.3887 -41.6992 98.2422 -41.9434 97.998 -42.2363 L 72.998 -67.2363 C 72.7539 -67.4805 72.4121 -67.5781 72.1191 -67.5781 Z"/>
  </g>
  <g id="Black-M" transform="matrix(1 0 0 1 2870.97 1126)">
   <path d="M 62.4023 18.457 C 91.9922 18.457 116.113 -5.61523 116.113 -35.2051 C 116.113 -64.7949 91.9922 -88.8672 62.4023 -88.8672 C 32.8125 -88.8672 8.74023 -64.7949 8.74023 -35.2051 C 8.74023 -5.61523 32.8125 18.457 62.4023 18.457 Z M 62.4023 0.195312 C 42.8711 0.195312 27.002 -15.625 27.002 -35.2051 C 27.002 -54.7363 42.8711 -70.6055 62.4023 -70.6055 C 81.9824 -70.6055 97.8027 -54.7363 97.8027 -35.2051 C 97.8027 -15.625 81.9824 0.195312 62.4023 0.195312 Z M 62.4023 -61.0352 C 59.7656 -61.0352 57.6172 -60.0586 56.0059 -58.252 L 40.6738 -41.4551 C 39.1602 -39.7461 38.6719 -38.5254 38.6719 -36.4746 C 38.6719 -33.0566 41.1621 -30.6641 44.873 -30.6641 C 46.6797 -30.6641 48.5352 -31.4453 49.5117 -32.8125 L 53.4668 -37.8418 L 55.4688 -41.4062 L 54.7363 -32.8613 L 54.7363 -16.4062 C 54.7363 -12.3535 58.1543 -9.42383 62.4023 -9.42383 C 66.6992 -9.42383 70.1172 -12.3535 70.1172 -16.4062 L 70.1172 -32.8613 L 69.3359 -41.4062 L 71.3867 -37.5977 L 75.293 -32.8125 C 76.3672 -31.4941 78.2227 -30.6641 79.9805 -30.6641 C 83.6914 -30.6641 86.1816 -33.0566 86.1816 -36.4746 C 86.1816 -38.5254 85.6934 -39.7461 84.1797 -41.4551 L 68.8477 -58.252 C 67.1875 -60.0586 65.0879 -61.0352 62.4023 -61.0352 Z"/>
  </g>
  <g id="Heavy-M" transform="matrix(1 0 0 1 2575.19 1126)">
   <path d="M 61.5234 17.5781 C 90.5273 17.5781 114.258 -6.15234 114.258 -35.2051 C 114.258 -64.2578 90.5273 -87.9883 61.4746 -87.9883 C 32.4707 -87.9883 8.74023 -64.2578 8.74023 -35.2051 C 8.74023 -6.15234 32.4707 17.5781 61.5234 17.5781 Z M 61.5234 1.66016 C 41.1133 1.66016 24.6582 -14.8438 24.6582 -35.2051 C 24.6582 -55.5664 41.1133 -72.0703 61.4746 -72.0703 C 81.8848 -72.0703 98.3398 -55.5664 98.3398 -35.2051 C 98.3398 -14.8438 81.8848 1.66016 61.5234 1.66016 Z M 61.5234 -60.8398 C 59.2285 -60.8398 57.4219 -60.0586 55.9082 -58.3984 L 40.2832 -41.6992 C 39.0137 -40.2344 38.5254 -39.0625 38.5254 -37.3047 C 38.5254 -34.1797 40.8203 -32.0312 44.1406 -32.0312 C 45.752 -32.0312 47.3633 -32.7148 48.291 -33.8867 L 52.7344 -39.209 L 55.4199 -43.3105 L 54.7852 -34.375 L 54.7852 -15.7715 C 54.7852 -12.1582 57.7148 -9.57031 61.5234 -9.57031 C 65.2832 -9.57031 68.2129 -12.1582 68.2129 -15.7715 L 68.2129 -34.375 L 67.5781 -43.3105 L 70.3125 -39.0137 L 74.707 -33.8867 C 75.6836 -32.7148 77.2949 -32.0312 78.9062 -32.0312 C 82.1777 -32.0312 84.4727 -34.1797 84.4727 -37.3047 C 84.4727 -39.0625 84.0332 -40.2344 82.7148 -41.6992 L 67.0898 -58.3984 C 65.625 -60.0098 63.7695 -60.8398 61.5234 -60.8398 Z"/>
  </g>
  <g id="Bold-M" transform="matrix(1 0 0 1 2279.5 1126)">
   <path d="M 60.498 16.5039 C 88.8672 16.5039 112.207 -6.78711 112.207 -35.2051 C 112.207 -63.623 88.8672 -86.9629 60.4492 -86.9629 C 32.0312 -86.9629 8.74023 -63.623 8.74023 -35.2051 C 8.74023 -6.78711 32.0801 16.5039 60.498 16.5039 Z M 60.498 3.22266 C 39.1602 3.22266 22.0703 -13.916 22.0703 -35.2051 C 22.0703 -56.4941 39.1602 -73.6816 60.4492 -73.6816 C 81.7383 -73.6816 98.9258 -56.4941 98.9258 -35.2051 C 98.9746 -13.916 81.7871 3.22266 60.498 3.22266 Z M 60.498 -60.6934 C 58.6426 -60.6934 57.1777 -60.0098 55.8594 -58.5938 L 39.8926 -41.9434 C 38.8184 -40.7715 38.4277 -39.7461 38.4277 -38.2324 C 38.4277 -35.498 40.4297 -33.5449 43.3105 -33.5449 C 44.7266 -33.5449 46.0938 -34.1309 46.9238 -35.1562 L 51.9531 -40.7227 L 55.3711 -45.459 L 54.834 -36.0352 L 54.834 -15.0879 C 54.834 -11.9629 57.2754 -9.76562 60.498 -9.76562 C 63.6719 -9.76562 66.1621 -11.9629 66.1621 -15.0879 L 66.1621 -36.0352 L 65.5762 -45.459 L 69.0918 -40.5762 L 74.0723 -35.1562 C 74.9023 -34.1309 76.2695 -33.5449 77.6855 -33.5449 C 80.5176 -33.5449 82.5684 -35.498 82.5684 -38.2324 C 82.5684 -39.7461 82.1289 -40.7715 81.0547 -41.9434 L 65.1367 -58.5938 C 63.8672 -59.9609 62.3535 -60.6934 60.498 -60.6934 Z"/>
  </g>
  <g id="Semibold-M" transform="matrix(1 0 0 1 1983.5 1126)">
   <path d="M 59.7656 15.8203 C 87.7441 15.8203 110.791 -7.22656 110.791 -35.2051 C 110.791 -63.1836 87.6953 -86.2793 59.7656 -86.2793 C 31.7871 -86.2793 8.74023 -63.1836 8.74023 -35.2051 C 8.74023 -7.22656 31.7871 15.8203 59.7656 15.8203 Z M 59.7656 4.3457 C 37.8418 4.3457 20.2637 -13.2812 20.2637 -35.2051 C 20.2637 -57.1289 37.793 -74.8047 59.7656 -74.8047 C 81.6895 -74.8047 99.3164 -57.1289 99.3652 -35.2051 C 99.3652 -13.2812 81.6895 4.3457 59.7656 4.3457 Z M 59.7656 -60.5469 C 58.2031 -60.5469 56.9824 -60.0098 55.8105 -58.7402 L 39.6484 -42.1387 C 38.7207 -41.1621 38.3301 -40.1855 38.3301 -38.8184 C 38.3301 -36.377 40.1855 -34.5703 42.7246 -34.5703 C 43.9941 -34.5703 45.2148 -35.1074 45.9473 -35.9863 L 51.3672 -41.7969 L 55.3223 -46.9238 L 54.834 -37.1582 L 54.834 -14.5996 C 54.834 -11.8164 56.9824 -9.86328 59.7656 -9.86328 C 62.5977 -9.86328 64.6973 -11.8164 64.6973 -14.5996 L 64.6973 -37.1582 L 64.209 -46.9238 L 68.2617 -41.6992 L 73.584 -35.9863 C 74.3652 -35.1074 75.5859 -34.5703 76.8555 -34.5703 C 79.3945 -34.5703 81.25 -36.377 81.25 -38.8184 C 81.25 -40.1855 80.8594 -41.1621 79.9316 -42.1387 L 63.7695 -58.7402 C 62.6465 -59.9609 61.377 -60.5469 59.7656 -60.5469 Z"/>
  </g>
  <g id="Medium-M" transform="matrix(1 0 0 1 1687.3 1126)">
   <path d="M 59.2285 15.2832 C 86.9141 15.2832 109.766 -7.56836 109.766 -35.2051 C 109.766 -62.8906 86.8652 -85.7422 59.1797 -85.7422 C 31.543 -85.7422 8.74023 -62.8906 8.74023 -35.2051 C 8.74023 -7.56836 31.5918 15.2832 59.2285 15.2832 Z M 59.2285 5.17578 C 36.8164 5.17578 18.8965 -12.8418 18.8965 -35.2051 C 18.8965 -57.6172 36.8164 -75.6348 59.1797 -75.6348 C 81.5918 -75.6348 99.6094 -57.6172 99.6582 -35.2051 C 99.707 -12.8418 81.6406 5.17578 59.2285 5.17578 Z M 59.2285 -60.498 C 57.9102 -60.498 56.8848 -59.9609 55.7617 -58.8379 L 39.4043 -42.2852 C 38.623 -41.4551 38.2812 -40.5273 38.2812 -39.3066 C 38.2812 -37.0605 39.9902 -35.4004 42.2852 -35.4004 C 43.457 -35.4004 44.5312 -35.8887 45.2637 -36.6699 L 50.9277 -42.5781 L 55.3223 -47.998 L 54.8828 -38.0371 L 54.8828 -14.209 C 54.8828 -11.7188 56.7383 -9.96094 59.2285 -9.96094 C 61.7676 -9.96094 63.623 -11.7188 63.623 -14.209 L 63.623 -38.0371 L 63.1836 -48.0469 L 67.627 -42.5293 L 73.2422 -36.6699 C 73.9746 -35.8398 75.0488 -35.4004 76.2207 -35.4004 C 78.5156 -35.4004 80.2734 -37.0605 80.2734 -39.3066 C 80.2734 -40.5273 79.8828 -41.4551 79.1016 -42.2852 L 62.7441 -58.8379 C 61.7188 -59.9121 60.5957 -60.498 59.2285 -60.498 Z"/>
  </g>
  <g id="Regular-M" transform="matrix(1 0 0 1 1391.3 1126)">
   <path d="M 58.5449 14.5508 C 85.791 14.5508 108.35 -8.00781 108.35 -35.2539 C 108.35 -62.4512 85.7422 -85.0586 58.4961 -85.0586 C 31.2988 -85.0586 8.74023 -62.4512 8.74023 -35.2539 C 8.74023 -8.00781 31.3477 14.5508 58.5449 14.5508 Z M 58.5449 6.25 C 35.498 6.25 17.0898 -12.207 17.0898 -35.2539 C 17.0898 -58.252 35.4492 -76.7578 58.4961 -76.7578 C 81.543 -76.7578 100 -58.252 100.049 -35.2539 C 100.098 -12.207 81.5918 6.25 58.5449 6.25 Z M 58.5449 -60.3516 C 57.5195 -60.3516 56.6895 -59.9609 55.7129 -58.9844 L 39.1602 -42.4805 C 38.4766 -41.8457 38.1836 -40.9668 38.1836 -39.9414 C 38.1836 -37.9395 39.6973 -36.4258 41.6992 -36.4258 C 42.7734 -36.4258 43.6523 -36.8164 44.2871 -37.5 L 50.3906 -43.6035 L 55.2734 -49.4629 L 54.8828 -39.1602 L 54.8828 -13.7207 C 54.8828 -11.5723 56.4453 -10.0586 58.5449 -10.0586 C 60.6934 -10.0586 62.207 -11.5723 62.207 -13.7207 L 62.207 -39.1602 L 61.8164 -49.5117 L 66.7969 -43.6035 L 72.8027 -37.5 C 73.4375 -36.7676 74.3652 -36.4258 75.3906 -36.4258 C 77.3926 -36.4258 78.9551 -37.9395 78.9551 -39.9414 C 78.9551 -40.9668 78.6133 -41.8457 77.9785 -42.4805 L 61.4258 -58.9844 C 60.498 -59.9121 59.6191 -60.3516 58.5449 -60.3516 Z"/>
  </g>
  <g id="Light-M" transform="matrix(1 0 0 1 1095.42 1126)">
   <path d="M 57.7148 13.7695 C 84.5215 13.7695 106.689 -8.39844 106.689 -35.2051 C 106.689 -62.0117 84.5215 -84.1797 57.666 -84.1797 C 30.8594 -84.1797 8.74023 -62.0117 8.74023 -35.2051 C 8.74023 -8.39844 30.9082 13.7695 57.7148 13.7695 Z M 57.7148 7.4707 C 34.082 7.4707 15.0879 -11.5723 15.0879 -35.2051 C 15.0879 -58.8379 34.082 -77.832 57.666 -77.832 C 81.2988 -77.832 100.342 -58.8379 100.391 -35.2051 C 100.391 -11.5723 81.3477 7.4707 57.7148 7.4707 Z M 57.7148 -60.3516 C 56.9336 -60.3516 56.2988 -60.0098 55.5664 -59.2773 L 38.1348 -41.8945 C 37.5977 -41.4062 37.3535 -40.7227 37.3535 -39.9414 C 37.3535 -38.4277 38.5254 -37.2559 40.0879 -37.2559 C 40.918 -37.2559 41.6016 -37.5488 42.1387 -38.0859 L 49.7559 -45.752 L 55.127 -51.7578 L 54.8828 -42.7734 L 54.8828 -12.8906 C 54.8828 -11.2305 56.0547 -10.0586 57.7148 -10.0586 C 59.375 -10.0586 60.5957 -11.2305 60.5957 -12.8906 L 60.5957 -42.7734 L 60.3027 -51.8066 L 65.7227 -45.752 L 73.3398 -38.0859 C 73.877 -37.5 74.5605 -37.2559 75.3906 -37.2559 C 76.9043 -37.2559 78.125 -38.4277 78.125 -39.9414 C 78.125 -40.7227 77.832 -41.4062 77.3438 -41.8945 L 59.9121 -59.2773 C 59.2285 -60.0098 58.5449 -60.3516 57.7148 -60.3516 Z"/>
  </g>
  <g id="Thin-M" transform="matrix(1 0 0 1 799.806 1126)">
   <path d="M 56.6406 12.7441 C 82.9102 12.7441 104.492 -8.83789 104.492 -35.1562 C 104.492 -61.4746 82.9102 -83.0566 56.5918 -83.0566 C 30.3223 -83.0566 8.74023 -61.4746 8.74023 -35.1562 C 8.74023 -8.83789 30.3223 12.7441 56.6406 12.7441 Z M 56.6406 8.98438 C 32.2266 8.98438 12.4512 -10.791 12.4512 -35.1562 C 12.4512 -59.5215 32.2266 -79.2969 56.5918 -79.2969 C 81.0059 -79.2969 100.781 -59.5215 100.781 -35.1562 C 100.781 -10.791 81.0059 8.98438 56.6406 8.98438 Z M 56.6406 -60.3027 C 56.1523 -60.3027 55.7617 -60.1562 55.3223 -59.7168 L 36.7676 -41.1621 C 36.4746 -40.8203 36.2793 -40.4297 36.2793 -39.9414 C 36.2793 -39.0137 37.0117 -38.3301 37.9883 -38.3301 C 38.4766 -38.3301 38.8672 -38.4766 39.2578 -38.8672 L 48.9258 -48.584 L 54.9805 -54.7852 L 54.834 -47.5098 L 54.834 -11.8164 C 54.834 -10.7422 55.5664 -10.0098 56.6406 -10.0098 C 57.7148 -10.0098 58.4473 -10.7422 58.4473 -11.8164 L 58.4473 -47.5098 L 58.252 -54.834 L 64.3555 -48.584 L 74.0234 -38.8672 C 74.4141 -38.4766 74.8047 -38.3301 75.3418 -38.3301 C 76.2695 -38.3301 77.002 -39.0137 77.002 -39.9414 C 77.002 -40.4297 76.8555 -40.8203 76.5137 -41.1621 L 57.9102 -59.7168 C 57.5195 -60.1074 57.0801 -60.3027 56.6406 -60.3027 Z"/>
  </g>
  <g id="Ultralight-M" transform="matrix(1 0 0 1 503.656 1126)">
   <path d="M 56.0547 12.207 C 82.0801 12.207 103.369 -9.08203 103.369 -35.1562 C 103.369 -61.1816 82.0801 -82.4707 56.0547 -82.4707 C 30.0293 -82.4707 8.74023 -61.1816 8.74023 -35.1562 C 8.74023 -9.08203 30.0293 12.207 56.0547 12.207 Z M 56.0547 9.81445 C 31.2988 9.81445 11.1328 -10.3516 11.1328 -35.1562 C 11.1328 -59.9121 31.2988 -80.0781 56.0547 -80.0781 C 80.8594 -80.0781 100.977 -59.9121 100.977 -35.1562 C 100.977 -10.3516 80.8594 9.81445 56.0547 9.81445 Z M 56.0547 -60.3027 C 55.7617 -60.3027 55.4688 -60.2051 55.2246 -59.9609 L 36.084 -40.7715 C 35.8887 -40.5273 35.7422 -40.2832 35.7422 -39.9414 C 35.7422 -39.3555 36.2305 -38.8672 36.8652 -38.8672 C 37.2559 -38.8672 37.5 -38.9648 37.793 -39.3066 L 48.5352 -50.0488 L 54.9316 -56.3477 L 54.7852 -49.9023 L 54.7852 -11.2793 C 54.7852 -10.498 55.3223 -10.0098 56.0547 -10.0098 C 56.8359 -10.0098 57.3242 -10.498 57.3242 -11.2793 L 57.3242 -49.9023 L 57.2266 -56.3965 L 63.6719 -50.0488 L 74.4141 -39.3066 C 74.707 -38.9648 74.9512 -38.8672 75.293 -38.8672 C 75.9766 -38.8672 76.416 -39.3555 76.416 -39.9414 C 76.416 -40.2832 76.3184 -40.5273 76.0742 -40.7715 L 56.8848 -59.9609 C 56.6406 -60.2051 56.3477 -60.3027 56.0547 -60.3027 Z"/>
  </g>
  <g id="Black-S" transform="matrix(1 0 0 1 2884.57 696)">
   <path d="M 48.8281 6.78711 C 71.9727 6.78711 90.8203 -12.0605 90.8203 -35.2051 C 90.8203 -58.3496 71.9727 -77.1973 48.8281 -77.1973 C 25.6836 -77.1973 6.83594 -58.3496 6.83594 -35.2051 C 6.83594 -12.0605 25.6836 6.78711 48.8281 6.78711 Z M 48.8281 -7.37305 C 33.4473 -7.37305 20.9961 -19.8242 20.9961 -35.2051 C 20.9961 -50.5859 33.4473 -63.0371 48.8281 -63.0371 C 64.209 -63.0371 76.6602 -50.5859 76.6602 -35.2051 C 76.6602 -19.8242 64.209 -7.37305 48.8281 -7.37305 Z M 48.8281 -55.4199 C 46.7773 -55.4199 45.1172 -54.6875 43.8477 -53.2715 L 31.8359 -40.1367 C 30.6641 -38.8184 30.2734 -37.8418 30.2734 -36.2793 C 30.2734 -33.5938 32.2266 -31.7383 35.1074 -31.7383 C 36.5234 -31.7383 37.9395 -32.373 38.7207 -33.3984 L 41.8457 -37.3535 L 43.457 -40.1855 L 42.8711 -33.4473 L 42.8711 -20.459 C 42.8711 -17.2852 45.5078 -15.0391 48.8281 -15.0391 C 52.1484 -15.0391 54.7852 -17.2852 54.7852 -20.459 L 54.7852 -33.4473 L 54.1992 -40.1855 L 55.8594 -37.1582 L 58.9355 -33.3984 C 59.7656 -32.373 61.1816 -31.7383 62.5488 -31.7383 C 65.4297 -31.7383 67.3828 -33.5938 67.3828 -36.2793 C 67.3828 -37.8418 66.9922 -38.8184 65.8203 -40.1367 L 53.8086 -53.2715 C 52.5391 -54.6875 50.8789 -55.4199 48.8281 -55.4199 Z"/>
  </g>
  <g id="Heavy-S" transform="matrix(1 0 0 1 2588.47 696)">
   <path d="M 48.2422 6.15234 C 70.9961 6.15234 89.5996 -12.4512 89.5996 -35.2051 C 89.5996 -57.959 70.9961 -76.6113 48.1934 -76.6113 C 25.4395 -76.6113 6.83594 -57.959 6.83594 -35.2051 C 6.83594 -12.4512 25.4395 6.15234 48.2422 6.15234 Z M 48.2422 -6.39648 C 32.2754 -6.39648 19.4336 -19.2871 19.4336 -35.2051 C 19.4336 -51.1719 32.2754 -64.0137 48.1934 -64.0137 C 64.1602 -64.0137 77.002 -51.1719 77.0508 -35.2051 C 77.0508 -19.2871 64.1602 -6.39648 48.2422 -6.39648 Z M 48.2422 -55.3223 C 46.4355 -55.3223 45.0195 -54.6387 43.7988 -53.3691 L 31.6895 -40.3809 C 30.6641 -39.2578 30.2734 -38.3301 30.2734 -36.9141 C 30.2734 -34.4238 32.0801 -32.666 34.7168 -32.666 C 36.0352 -32.666 37.3047 -33.252 38.0371 -34.1797 L 41.3574 -38.1348 L 43.4082 -41.4062 L 42.9199 -34.1797 L 42.9199 -20.0684 C 42.9199 -17.1875 45.2637 -15.1367 48.2422 -15.1367 C 51.2207 -15.1367 53.5156 -17.1875 53.5156 -20.0684 L 53.5156 -34.1797 L 53.0273 -41.4062 L 55.127 -37.9883 L 58.4473 -34.1797 C 59.1797 -33.252 60.4492 -32.666 61.7188 -32.666 C 64.3555 -32.666 66.1621 -34.4238 66.1621 -36.9141 C 66.1621 -38.3301 65.8203 -39.2578 64.7949 -40.3809 L 52.6367 -53.3691 C 51.4648 -54.6387 50 -55.3223 48.2422 -55.3223 Z"/>
  </g>
  <g id="Bold-S" transform="matrix(1 0 0 1 2292.44 696)">
   <path d="M 47.5586 5.46875 C 69.873 5.46875 88.2324 -12.8906 88.2324 -35.2051 C 88.2324 -57.5684 69.873 -75.9277 47.5098 -75.9277 C 25.1953 -75.9277 6.83594 -57.5684 6.83594 -35.2051 C 6.83594 -12.8906 25.1953 5.46875 47.5586 5.46875 Z M 47.5586 -5.32227 C 30.957 -5.32227 17.6758 -18.6523 17.6758 -35.2051 C 17.6758 -51.8066 30.957 -65.1367 47.5098 -65.1367 C 64.1113 -65.1367 77.4414 -51.8066 77.4414 -35.2051 C 77.4414 -18.6523 64.1113 -5.32227 47.5586 -5.32227 Z M 47.5586 -55.1758 C 46.0449 -55.1758 44.873 -54.6387 43.7988 -53.4668 L 31.4941 -40.6738 C 30.6152 -39.6973 30.2734 -38.8184 30.2734 -37.5977 C 30.2734 -35.3516 31.9336 -33.7402 34.2773 -33.7402 C 35.4492 -33.7402 36.5723 -34.2773 37.2559 -35.0586 L 40.8203 -39.0625 L 43.4082 -42.7246 L 42.9199 -35.0098 L 42.9199 -19.6289 C 42.9199 -17.0898 44.9219 -15.2832 47.5586 -15.2832 C 50.1465 -15.2832 52.1484 -17.0898 52.1484 -19.6289 L 52.1484 -35.0098 L 51.709 -42.7734 L 54.3457 -38.9648 L 57.8613 -35.0586 C 58.5449 -34.2285 59.668 -33.7402 60.791 -33.7402 C 63.1348 -33.7402 64.8438 -35.3516 64.8438 -37.5977 C 64.8438 -38.8184 64.4531 -39.6973 63.623 -40.6738 L 51.3184 -53.4668 C 50.2441 -54.5898 49.0723 -55.1758 47.5586 -55.1758 Z"/>
  </g>
  <g id="Semibold-S" transform="matrix(1 0 0 1 1996.2 696)">
   <path d="M 47.0703 4.98047 C 69.0918 4.98047 87.3047 -13.1836 87.3047 -35.2539 C 87.3047 -57.2754 69.0918 -75.4883 47.0215 -75.4883 C 25 -75.4883 6.83594 -57.2754 6.83594 -35.2539 C 6.83594 -13.1836 25.0488 4.98047 47.0703 4.98047 Z M 47.0703 -4.58984 C 30.0781 -4.58984 16.4551 -18.2129 16.4551 -35.2539 C 16.4551 -52.2461 30.0293 -65.8691 47.0215 -65.8691 C 64.0625 -65.8691 77.6855 -52.2461 77.7344 -35.2539 C 77.7344 -18.2129 64.0625 -4.58984 47.0703 -4.58984 Z M 47.0703 -55.0781 C 45.8008 -55.0781 44.7754 -54.5898 43.75 -53.5156 L 31.3477 -40.8203 C 30.6152 -40.0391 30.2734 -39.1602 30.2734 -38.0859 C 30.2734 -35.9863 31.8359 -34.4727 33.9844 -34.4727 C 35.0586 -34.4727 36.0352 -34.9609 36.6699 -35.6445 L 40.4297 -39.6973 L 43.3594 -43.6523 L 42.9688 -35.5957 L 42.9688 -19.2871 C 42.9688 -16.9922 44.7266 -15.3809 47.0703 -15.3809 C 49.4141 -15.3809 51.1719 -16.9922 51.1719 -19.2871 L 51.1719 -35.5957 L 50.7812 -43.7012 L 53.8086 -39.5996 L 57.4707 -35.6445 C 58.1055 -34.9121 59.082 -34.4727 60.2051 -34.4727 C 62.3047 -34.4727 63.916 -35.9863 63.916 -38.0859 C 63.916 -39.1602 63.5254 -40.0391 62.793 -40.8203 L 50.4395 -53.5156 C 49.4629 -54.541 48.3887 -55.0781 47.0703 -55.0781 Z"/>
  </g>
  <g id="Medium-S" transform="matrix(1 0 0 1 1699.83 696)">
   <path d="M 46.7285 4.63867 C 68.5547 4.63867 86.6211 -13.4277 86.6211 -35.2539 C 86.6211 -57.0312 68.5059 -75.1465 46.6797 -75.1465 C 24.8535 -75.1465 6.83594 -57.0312 6.83594 -35.2539 C 6.83594 -13.4277 24.9023 4.63867 46.7285 4.63867 Z M 46.7285 -4.00391 C 29.3945 -4.00391 15.5273 -17.9199 15.5273 -35.2539 C 15.5273 -52.5879 29.3457 -66.4551 46.6797 -66.4551 C 64.0137 -66.4551 77.8809 -52.5879 77.9297 -35.2539 C 77.9785 -17.9199 64.0625 -4.00391 46.7285 -4.00391 Z M 46.7285 -55.0293 C 45.6055 -55.0293 44.7266 -54.5898 43.75 -53.6133 L 31.25 -40.9668 C 30.6152 -40.2832 30.2734 -39.4531 30.2734 -38.4277 C 30.2734 -36.4746 31.7383 -35.0586 33.7402 -35.0586 C 34.7656 -35.0586 35.6934 -35.4492 36.2793 -36.1328 L 40.1367 -40.1367 L 43.3594 -44.3359 L 42.9688 -36.0352 L 42.9688 -19.0918 C 42.9688 -16.9434 44.5801 -15.4297 46.7285 -15.4297 C 48.877 -15.4297 50.4395 -16.9434 50.4395 -19.0918 L 50.4395 -36.0352 L 50.0977 -44.3848 L 53.3691 -40.1367 L 57.1777 -36.1328 C 57.7637 -35.4492 58.6914 -35.0586 59.7168 -35.0586 C 61.6699 -35.0586 63.1836 -36.4746 63.1836 -38.4277 C 63.1836 -39.4531 62.8418 -40.2832 62.1582 -40.9668 L 49.7559 -53.6133 C 48.8281 -54.541 47.9004 -55.0293 46.7285 -55.0293 Z"/>
  </g>
  <g id="Regular-S" transform="matrix(1 0 0 1 1403.58 696)">
   <path d="M 46.2402 4.15039 C 67.7734 4.15039 85.6934 -13.7207 85.6934 -35.2539 C 85.6934 -56.7871 67.7246 -74.6582 46.1914 -74.6582 C 24.707 -74.6582 6.83594 -56.7871 6.83594 -35.2539 C 6.83594 -13.7207 24.7559 4.15039 46.2402 4.15039 Z M 46.2402 -3.27148 C 28.5156 -3.27148 14.3555 -17.4805 14.3555 -35.2539 C 14.3555 -53.0273 28.4668 -67.2363 46.1914 -67.2363 C 63.9648 -67.2363 78.1738 -53.0273 78.2227 -35.2539 C 78.2715 -17.4805 64.0137 -3.27148 46.2402 -3.27148 Z M 46.2402 -54.9316 C 45.3125 -54.9316 44.6289 -54.541 43.7012 -53.6621 L 31.1523 -41.1621 C 30.5664 -40.625 30.2734 -39.7949 30.2734 -38.916 C 30.2734 -37.1094 31.6406 -35.791 33.4473 -35.791 C 34.375 -35.791 35.1562 -36.1328 35.7422 -36.7188 L 39.7461 -40.7715 L 43.3594 -45.2637 L 43.0176 -36.5723 L 43.0176 -18.75 C 43.0176 -16.8945 44.3848 -15.5273 46.2402 -15.5273 C 48.1445 -15.5273 49.5117 -16.8945 49.5117 -18.75 L 49.5117 -36.5723 L 49.1699 -45.3125 L 52.832 -40.7715 L 56.7871 -36.7188 C 57.3242 -36.084 58.1543 -35.791 59.082 -35.791 C 60.8398 -35.791 62.2559 -37.1094 62.2559 -38.916 C 62.2559 -39.7949 61.9629 -40.625 61.377 -41.1621 L 48.8281 -53.6621 C 47.998 -54.4922 47.2656 -54.9316 46.2402 -54.9316 Z"/>
  </g>
  <g id="Light-S" transform="matrix(1 0 0 1 1107.6 696)">
   <path d="M 45.5078 3.4668 C 66.6992 3.4668 84.2285 -14.0625 84.2285 -35.2051 C 84.2285 -56.3965 66.6504 -73.9258 45.5078 -73.9258 C 24.3164 -73.9258 6.83594 -56.3965 6.83594 -35.2051 C 6.83594 -14.0625 24.3652 3.4668 45.5078 3.4668 Z M 45.5078 -2.24609 C 27.2461 -2.24609 12.5977 -16.9434 12.5977 -35.2051 C 12.5977 -53.5156 27.1973 -68.2129 45.5078 -68.2129 C 63.7695 -68.2129 78.4668 -53.5156 78.5156 -35.2051 C 78.5156 -16.9434 63.8184 -2.24609 45.5078 -2.24609 Z M 45.5078 -54.9316 C 44.8242 -54.9316 44.2383 -54.6387 43.5547 -53.9551 L 30.2246 -40.6738 C 29.7852 -40.2344 29.5898 -39.5996 29.5898 -38.916 C 29.5898 -37.5488 30.6152 -36.4746 32.0312 -36.4746 C 32.7637 -36.4746 33.3496 -36.7676 33.8379 -37.2559 L 39.209 -42.6758 L 43.2617 -47.3145 L 42.9688 -39.7461 L 42.9688 -18.0664 C 42.9688 -16.5527 44.043 -15.5273 45.5078 -15.5273 C 47.0215 -15.5273 48.0469 -16.5527 48.0469 -18.0664 L 48.0469 -39.7461 L 47.8027 -47.3633 L 51.9043 -42.6758 L 57.2266 -37.2559 C 57.7148 -36.7676 58.3008 -36.4746 59.0332 -36.4746 C 60.4492 -36.4746 61.5234 -37.5488 61.5234 -38.916 C 61.5234 -39.5996 61.2793 -40.2344 60.8398 -40.6738 L 47.5098 -53.9551 C 46.875 -54.5898 46.2891 -54.9316 45.5078 -54.9316 Z"/>
  </g>
  <g id="Thin-S" transform="matrix(1 0 0 1 811.867 696)">
   <path d="M 44.5801 2.53906 C 65.2832 2.53906 82.2754 -14.4531 82.2754 -35.2051 C 82.2754 -55.9082 65.2344 -72.9004 44.5312 -72.9004 C 23.8281 -72.9004 6.83594 -55.9082 6.83594 -35.2051 C 6.83594 -14.4531 23.877 2.53906 44.5801 2.53906 Z M 44.5801 -0.878906 C 25.5859 -0.878906 10.2539 -16.2109 10.2539 -35.2051 C 10.2539 -54.1504 25.5859 -69.4824 44.5312 -69.4824 C 63.5254 -69.4824 78.8574 -54.1504 78.8574 -35.2051 C 78.8574 -16.2109 63.5254 -0.878906 44.5801 -0.878906 Z M 44.5801 -54.8828 C 44.1406 -54.8828 43.75 -54.7363 43.4082 -54.3457 L 29.0527 -40.0391 C 28.7598 -39.7461 28.6133 -39.3555 28.6133 -38.916 C 28.6133 -38.0859 29.2969 -37.4512 30.127 -37.4512 C 30.6152 -37.4512 30.957 -37.5977 31.2988 -37.9395 L 38.4766 -45.166 L 43.1152 -49.9512 L 42.9688 -43.9453 L 42.9688 -17.0898 C 42.9688 -16.1621 43.6523 -15.4785 44.5801 -15.4785 C 45.5078 -15.4785 46.1914 -16.1621 46.1914 -17.0898 L 46.1914 -43.9453 L 45.9961 -50 L 50.6836 -45.166 L 57.8613 -37.9395 C 58.2031 -37.5977 58.5449 -37.4512 59.0332 -37.4512 C 59.8633 -37.4512 60.5469 -38.0859 60.5469 -38.916 C 60.5469 -39.3555 60.4004 -39.7461 60.1074 -40.0391 L 45.752 -54.3457 C 45.3613 -54.6875 45.0195 -54.8828 44.5801 -54.8828 Z"/>
  </g>
  <g id="Ultralight-S" transform="matrix(1 0 0 1 515.644 696)">
   <path d="M 44.043 2.05078 C 64.502 2.05078 81.2988 -14.6973 81.2988 -35.1562 C 81.2988 -55.6152 64.502 -72.3633 44.043 -72.3633 C 23.584 -72.3633 6.83594 -55.6152 6.83594 -35.1562 C 6.83594 -14.6973 23.584 2.05078 44.043 2.05078 Z M 44.043 -0.146484 C 24.7559 -0.146484 9.08203 -15.8691 9.08203 -35.1562 C 9.08203 -54.4434 24.7559 -70.166 44.043 -70.166 C 63.3789 -70.166 79.0527 -54.4434 79.0527 -35.1562 C 79.0527 -15.8691 63.3789 -0.146484 44.043 -0.146484 Z M 44.043 -54.8828 C 43.7988 -54.8828 43.5059 -54.7852 43.2617 -54.541 L 28.4668 -39.6973 C 28.2227 -39.4531 28.125 -39.2578 28.125 -38.916 C 28.125 -38.3789 28.5645 -37.9395 29.1992 -37.9395 C 29.4922 -37.9395 29.7363 -38.0371 29.9805 -38.2812 L 38.1348 -46.4355 L 43.0176 -51.3672 L 42.9199 -46.0938 L 42.9199 -16.6016 C 42.9199 -15.918 43.4082 -15.4785 44.043 -15.4785 C 44.7754 -15.4785 45.2148 -15.918 45.2148 -16.6016 L 45.2148 -46.0938 L 45.0684 -51.416 L 50.0488 -46.4355 L 58.2031 -38.2812 C 58.4473 -38.0371 58.6426 -37.9395 58.9844 -37.9395 C 59.5703 -37.9395 60.0098 -38.3789 60.0098 -38.916 C 60.0098 -39.2578 59.9121 -39.4531 59.7168 -39.6973 L 44.8242 -54.541 C 44.6289 -54.7852 44.3359 -54.8828 44.043 -54.8828 Z"/>
  </g>
 </g>
</svg>
