<?xml version="1.0" encoding="UTF-8"?>
<!--Generator: Apple Native CoreSVG 123-->
<!DOCTYPE svg
PUBLIC "-//W3C//DTD SVG 1.1//EN"
       "http://www.w3.org/Graphics/SVG/1.1/DTD/svg11.dtd">
<svg version="1.1" xmlns="http://www.w3.org/2000/svg" xmlns:xlink="http://www.w3.org/1999/xlink" width="3300" height="2200">
 <!--glyph: "uni10007E.medium", point size: 100.000000, font version: "Version 15.0d7e11", template writer version: "5"-->
 <g id="Notes">
  <rect height="2200" id="artboard" style="fill:white;opacity:1" width="3300" x="0" y="0"/>
  <line id="" style="fill:none;stroke:black;opacity:1;stroke-width:0.5;" x1="263" x2="3036" y1="292" y2="292"/>
  <text style="stroke:none;fill:black;font-family:-apple-system,&quot;SF Pro Display&quot;,&quot;SF Pro Text&quot;,Helvetica,sans-serif;font-weight:bold;" transform="matrix(1 0 0 1 263 322)">Weight/Scale Variations</text>
  <text style="stroke:none;fill:black;font-family:-apple-system,&quot;SF Pro Display&quot;,&quot;SF Pro Text&quot;,Helvetica,sans-serif;text-anchor:middle;" transform="matrix(1 0 0 1 559.711 322)">Ultralight</text>
  <text style="stroke:none;fill:black;font-family:-apple-system,&quot;SF Pro Display&quot;,&quot;SF Pro Text&quot;,Helvetica,sans-serif;text-anchor:middle;" transform="matrix(1 0 0 1 856.422 322)">Thin</text>
  <text style="stroke:none;fill:black;font-family:-apple-system,&quot;SF Pro Display&quot;,&quot;SF Pro Text&quot;,Helvetica,sans-serif;text-anchor:middle;" transform="matrix(1 0 0 1 1153.13 322)">Light</text>
  <text style="stroke:none;fill:black;font-family:-apple-system,&quot;SF Pro Display&quot;,&quot;SF Pro Text&quot;,Helvetica,sans-serif;text-anchor:middle;" transform="matrix(1 0 0 1 1449.84 322)">Regular</text>
  <text style="stroke:none;fill:black;font-family:-apple-system,&quot;SF Pro Display&quot;,&quot;SF Pro Text&quot;,Helvetica,sans-serif;text-anchor:middle;" transform="matrix(1 0 0 1 1746.56 322)">Medium</text>
  <text style="stroke:none;fill:black;font-family:-apple-system,&quot;SF Pro Display&quot;,&quot;SF Pro Text&quot;,Helvetica,sans-serif;text-anchor:middle;" transform="matrix(1 0 0 1 2043.27 322)">Semibold</text>
  <text style="stroke:none;fill:black;font-family:-apple-system,&quot;SF Pro Display&quot;,&quot;SF Pro Text&quot;,Helvetica,sans-serif;text-anchor:middle;" transform="matrix(1 0 0 1 2339.98 322)">Bold</text>
  <text style="stroke:none;fill:black;font-family:-apple-system,&quot;SF Pro Display&quot;,&quot;SF Pro Text&quot;,Helvetica,sans-serif;text-anchor:middle;" transform="matrix(1 0 0 1 2636.69 322)">Heavy</text>
  <text style="stroke:none;fill:black;font-family:-apple-system,&quot;SF Pro Display&quot;,&quot;SF Pro Text&quot;,Helvetica,sans-serif;text-anchor:middle;" transform="matrix(1 0 0 1 2933.4 322)">Black</text>
  <line id="" style="fill:none;stroke:black;opacity:1;stroke-width:0.5;" x1="263" x2="3036" y1="1903" y2="1903"/>
  <g id="" transform="matrix(1 0 0 1 263 1933)">
   <path d="M 9.24805 0.830078 C 13.5547 0.830078 17.1387 -2.74414 17.1387 -7.05078 C 17.1387 -11.3574 13.5449 -14.9316 9.23828 -14.9316 C 4.94141 -14.9316 1.36719 -11.3574 1.36719 -7.05078 C 1.36719 -2.74414 4.95117 0.830078 9.24805 0.830078 Z M 9.24805 -0.654297 C 5.70312 -0.654297 2.87109 -3.49609 2.87109 -7.05078 C 2.87109 -10.6055 5.69336 -13.4473 9.23828 -13.4473 C 12.793 -13.4473 15.6348 -10.6055 15.6445 -7.05078 C 15.6543 -3.49609 12.8027 -0.654297 9.24805 -0.654297 Z M 9.22852 -3.42773 C 9.69727 -3.42773 9.9707 -3.74023 9.9707 -4.25781 L 9.9707 -6.31836 L 12.1973 -6.31836 C 12.6953 -6.31836 13.0371 -6.57227 13.0371 -7.04102 C 13.0371 -7.51953 12.7148 -7.7832 12.1973 -7.7832 L 9.9707 -7.7832 L 9.9707 -10.0098 C 9.9707 -10.5273 9.69727 -10.8496 9.22852 -10.8496 C 8.75977 -10.8496 8.50586 -10.5078 8.50586 -10.0098 L 8.50586 -7.7832 L 6.29883 -7.7832 C 5.78125 -7.7832 5.44922 -7.51953 5.44922 -7.04102 C 5.44922 -6.57227 5.80078 -6.31836 6.29883 -6.31836 L 8.50586 -6.31836 L 8.50586 -4.25781 C 8.50586 -3.75977 8.75977 -3.42773 9.22852 -3.42773 Z"/>
  </g>
  <g id="" transform="matrix(1 0 0 1 281.506 1933)">
   <path d="M 11.709 2.91016 C 17.1582 2.91016 21.6699 -1.60156 21.6699 -7.05078 C 21.6699 -12.4902 17.1484 -17.0117 11.6992 -17.0117 C 6.25977 -17.0117 1.74805 -12.4902 1.74805 -7.05078 C 1.74805 -1.60156 6.26953 2.91016 11.709 2.91016 Z M 11.709 1.25 C 7.09961 1.25 3.41797 -2.44141 3.41797 -7.05078 C 3.41797 -11.6504 7.08984 -15.3516 11.6992 -15.3516 C 16.3086 -15.3516 20 -11.6504 20.0098 -7.05078 C 20.0195 -2.44141 16.3184 1.25 11.709 1.25 Z M 11.6895 -2.41211 C 12.207 -2.41211 12.5195 -2.77344 12.5195 -3.33984 L 12.5195 -6.23047 L 15.5762 -6.23047 C 16.123 -6.23047 16.5039 -6.51367 16.5039 -7.03125 C 16.5039 -7.55859 16.1426 -7.86133 15.5762 -7.86133 L 12.5195 -7.86133 L 12.5195 -10.9277 C 12.5195 -11.5039 12.207 -11.8555 11.6895 -11.8555 C 11.1719 -11.8555 10.8789 -11.4844 10.8789 -10.9277 L 10.8789 -7.86133 L 7.83203 -7.86133 C 7.26562 -7.86133 6.89453 -7.55859 6.89453 -7.03125 C 6.89453 -6.51367 7.28516 -6.23047 7.83203 -6.23047 L 10.8789 -6.23047 L 10.8789 -3.33984 C 10.8789 -2.79297 11.1719 -2.41211 11.6895 -2.41211 Z"/>
  </g>
  <g id="" transform="matrix(1 0 0 1 304.924 1933)">
   <path d="M 14.9707 5.67383 C 21.9336 5.67383 27.6953 -0.078125 27.6953 -7.04102 C 27.6953 -14.0039 21.9238 -19.7559 14.9609 -19.7559 C 8.00781 -19.7559 2.25586 -14.0039 2.25586 -7.04102 C 2.25586 -0.078125 8.01758 5.67383 14.9707 5.67383 Z M 14.9707 3.85742 C 8.93555 3.85742 4.08203 -1.00586 4.08203 -7.04102 C 4.08203 -13.0762 8.92578 -17.9395 14.9609 -17.9395 C 21.0059 -17.9395 25.8594 -13.0762 25.8691 -7.04102 C 25.8789 -1.00586 21.0156 3.85742 14.9707 3.85742 Z M 14.9512 -1.06445 C 15.5176 -1.06445 15.8691 -1.45508 15.8691 -2.06055 L 15.8691 -6.13281 L 20.1074 -6.13281 C 20.6934 -6.13281 21.1133 -6.46484 21.1133 -7.02148 C 21.1133 -7.59766 20.7227 -7.93945 20.1074 -7.93945 L 15.8691 -7.93945 L 15.8691 -12.1875 C 15.8691 -12.8027 15.5176 -13.1934 14.9512 -13.1934 C 14.3848 -13.1934 14.0625 -12.7832 14.0625 -12.1875 L 14.0625 -7.93945 L 9.83398 -7.93945 C 9.21875 -7.93945 8.80859 -7.59766 8.80859 -7.02148 C 8.80859 -6.46484 9.23828 -6.13281 9.83398 -6.13281 L 14.0625 -6.13281 L 14.0625 -2.06055 C 14.0625 -1.47461 14.3848 -1.06445 14.9512 -1.06445 Z"/>
  </g>
  <text style="stroke:none;fill:black;font-family:-apple-system,&quot;SF Pro Display&quot;,&quot;SF Pro Text&quot;,Helvetica,sans-serif;font-weight:bold;" transform="matrix(1 0 0 1 263 1953)">Design Variations</text>
  <text style="stroke:none;fill:black;font-family:-apple-system,&quot;SF Pro Display&quot;,&quot;SF Pro Text&quot;,Helvetica,sans-serif;" transform="matrix(1 0 0 1 263 1971)">Symbols are supported in up to nine weights and three scales.</text>
  <text style="stroke:none;fill:black;font-family:-apple-system,&quot;SF Pro Display&quot;,&quot;SF Pro Text&quot;,Helvetica,sans-serif;" transform="matrix(1 0 0 1 263 1989)">For optimal layout with text and other symbols, vertically align</text>
  <text style="stroke:none;fill:black;font-family:-apple-system,&quot;SF Pro Display&quot;,&quot;SF Pro Text&quot;,Helvetica,sans-serif;" transform="matrix(1 0 0 1 263 2007)">symbols with the adjacent text.</text>
  <rect height="14" id="" style="fill:#00AEEF;stroke:none;opacity:0.4;" width="3" x="776" y="1919"/>
  <g id="" transform="matrix(1 0 0 1 779 1933)">
   <path d="M 10.5273 0 L 12.373 0 L 7.17773 -14.0918 L 5.43945 -14.0918 L 0.244141 0 L 2.08984 0 L 3.50586 -4.0332 L 9.11133 -4.0332 Z M 6.2793 -11.9531 L 6.33789 -11.9531 L 8.59375 -5.52734 L 4.02344 -5.52734 Z"/>
  </g>
  <rect height="14" id="" style="fill:#00AEEF;stroke:none;opacity:0.4;" width="3" x="791.617" y="1919"/>
  <text style="stroke:none;fill:black;font-family:-apple-system,&quot;SF Pro Display&quot;,&quot;SF Pro Text&quot;,Helvetica,sans-serif;font-weight:bold;" transform="matrix(1 0 0 1 776 1953)">Margins</text>
  <text style="stroke:none;fill:black;font-family:-apple-system,&quot;SF Pro Display&quot;,&quot;SF Pro Text&quot;,Helvetica,sans-serif;" transform="matrix(1 0 0 1 776 1971)">Leading and trailing margins on the left and right side of each symbol</text>
  <text style="stroke:none;fill:black;font-family:-apple-system,&quot;SF Pro Display&quot;,&quot;SF Pro Text&quot;,Helvetica,sans-serif;" transform="matrix(1 0 0 1 776 1989)">can be adjusted by modifying the width of the blue rectangles.</text>
  <text style="stroke:none;fill:black;font-family:-apple-system,&quot;SF Pro Display&quot;,&quot;SF Pro Text&quot;,Helvetica,sans-serif;" transform="matrix(1 0 0 1 776 2007)">Modifications are automatically applied proportionally to all</text>
  <text style="stroke:none;fill:black;font-family:-apple-system,&quot;SF Pro Display&quot;,&quot;SF Pro Text&quot;,Helvetica,sans-serif;" transform="matrix(1 0 0 1 776 2025)">scales and weights.</text>
  <g id="" transform="matrix(1 0 0 1 1289 1933)">
   <path d="M 2.83203 3.11523 L 4.375 4.6582 C 5.22461 5.48828 6.19141 5.41992 7.06055 4.46289 L 17.2754 -6.66016 C 17.7051 -6.36719 18.0957 -6.37695 18.5645 -6.47461 L 19.6094 -6.68945 L 20.3027 -5.99609 L 20.2539 -5.47852 C 20.1855 -4.95117 20.3516 -4.53125 20.8496 -4.0332 L 21.6602 -3.22266 C 22.168 -2.71484 22.8223 -2.68555 23.3008 -3.16406 L 26.5527 -6.41602 C 27.0312 -6.89453 27.0117 -7.54883 26.5039 -8.05664 L 25.6836 -8.87695 C 25.1855 -9.375 24.7754 -9.55078 24.2383 -9.47266 L 23.7109 -9.41406 L 23.0566 -10.0781 L 23.3398 -11.2207 C 23.4863 -11.7871 23.3398 -12.2559 22.7148 -12.8613 L 20.3027 -15.2539 C 16.7578 -18.7793 12.2266 -18.6719 9.11133 -15.5371 C 8.69141 -15.1074 8.64258 -14.5215 8.91602 -14.0918 C 9.15039 -13.7207 9.62891 -13.4961 10.2734 -13.6621 C 11.7871 -14.043 13.3008 -13.9258 14.7852 -12.9199 L 14.1602 -11.3379 C 13.9258 -10.752 13.9453 -10.2734 14.1797 -9.83398 L 3.01758 0.439453 C 2.08008 1.30859 1.97266 2.25586 2.83203 3.11523 Z M 10.6738 -15.1465 C 13.3398 -17.1387 16.6504 -16.8262 19.0527 -14.4141 L 21.6797 -11.8066 C 21.9141 -11.5723 21.9434 -11.3867 21.8848 -11.0938 L 21.5039 -9.53125 L 23.0762 -7.95898 L 24.043 -8.04688 C 24.3262 -8.07617 24.4141 -8.05664 24.6387 -7.83203 L 25.2637 -7.20703 L 22.5098 -4.46289 L 21.8848 -5.07812 C 21.6602 -5.30273 21.6406 -5.40039 21.6699 -5.68359 L 21.7578 -6.64062 L 20.1953 -8.20312 L 18.5742 -7.89062 C 18.291 -7.83203 18.1445 -7.83203 17.9102 -8.07617 L 15.7324 -10.2539 C 15.5078 -10.4883 15.4785 -10.625 15.6055 -10.9473 L 16.5527 -13.2227 C 14.9512 -14.7559 12.8418 -15.6055 10.8008 -14.9512 C 10.7129 -14.9219 10.6445 -14.9414 10.6152 -14.9805 C 10.5859 -15.0293 10.5859 -15.0781 10.6738 -15.1465 Z M 4.10156 2.41211 C 3.61328 1.91406 3.78906 1.61133 4.12109 1.30859 L 15.0781 -8.80859 L 16.3086 -7.57812 L 6.15234 3.34961 C 5.84961 3.68164 5.46875 3.7793 5.06836 3.37891 Z"/>
  </g>
  <text style="stroke:none;fill:black;font-family:-apple-system,&quot;SF Pro Display&quot;,&quot;SF Pro Text&quot;,Helvetica,sans-serif;font-weight:bold;" transform="matrix(1 0 0 1 1289 1953)">Exporting</text>
  <text style="stroke:none;fill:black;font-family:-apple-system,&quot;SF Pro Display&quot;,&quot;SF Pro Text&quot;,Helvetica,sans-serif;" transform="matrix(1 0 0 1 1289 1971)">Symbols should be outlined when exporting to ensure the</text>
  <text style="stroke:none;fill:black;font-family:-apple-system,&quot;SF Pro Display&quot;,&quot;SF Pro Text&quot;,Helvetica,sans-serif;" transform="matrix(1 0 0 1 1289 1989)">design is preserved when submitting to Xcode.</text>
  <text id="template-version" style="stroke:none;fill:black;font-family:-apple-system,&quot;SF Pro Display&quot;,&quot;SF Pro Text&quot;,Helvetica,sans-serif;text-anchor:end;" transform="matrix(1 0 0 1 3036 1933)">Template v.1.0</text>
  <text style="stroke:none;fill:black;font-family:-apple-system,&quot;SF Pro Display&quot;,&quot;SF Pro Text&quot;,Helvetica,sans-serif;text-anchor:end;" transform="matrix(1 0 0 1 3036 1951)">Generated from arrow.up.arrow.down.circle</text>
  <text style="stroke:none;fill:black;font-family:-apple-system,&quot;SF Pro Display&quot;,&quot;SF Pro Text&quot;,Helvetica,sans-serif;text-anchor:end;" transform="matrix(1 0 0 1 3036 1969)">Typeset at 100 points</text>
  <text style="stroke:none;fill:black;font-family:-apple-system,&quot;SF Pro Display&quot;,&quot;SF Pro Text&quot;,Helvetica,sans-serif;" transform="matrix(1 0 0 1 263 726)">Small</text>
  <text style="stroke:none;fill:black;font-family:-apple-system,&quot;SF Pro Display&quot;,&quot;SF Pro Text&quot;,Helvetica,sans-serif;" transform="matrix(1 0 0 1 263 1156)">Medium</text>
  <text style="stroke:none;fill:black;font-family:-apple-system,&quot;SF Pro Display&quot;,&quot;SF Pro Text&quot;,Helvetica,sans-serif;" transform="matrix(1 0 0 1 263 1586)">Large</text>
 </g>
 <g id="Guides">
  <g id="H-reference" style="fill:#27AAE1;stroke:none;" transform="matrix(1 0 0 1 339 696)">
   <path d="M 54.9316 0 L 57.666 0 L 30.5664 -70.459 L 28.0762 -70.459 L 0.976562 0 L 3.66211 0 L 12.9395 -24.4629 L 45.7031 -24.4629 Z M 29.1992 -67.0898 L 29.4434 -67.0898 L 44.8242 -26.709 L 13.8184 -26.709 Z"/>
  </g>
  <line id="Baseline-S" style="fill:none;stroke:#27AAE1;opacity:1;stroke-width:0.577;" x1="263" x2="3036" y1="696" y2="696"/>
  <line id="Capline-S" style="fill:none;stroke:#27AAE1;opacity:1;stroke-width:0.577;" x1="263" x2="3036" y1="625.541" y2="625.541"/>
  <g id="H-reference" style="fill:#27AAE1;stroke:none;" transform="matrix(1 0 0 1 339 1126)">
   <path d="M 54.9316 0 L 57.666 0 L 30.5664 -70.459 L 28.0762 -70.459 L 0.976562 0 L 3.66211 0 L 12.9395 -24.4629 L 45.7031 -24.4629 Z M 29.1992 -67.0898 L 29.4434 -67.0898 L 44.8242 -26.709 L 13.8184 -26.709 Z"/>
  </g>
  <line id="Baseline-M" style="fill:none;stroke:#27AAE1;opacity:1;stroke-width:0.577;" x1="263" x2="3036" y1="1126" y2="1126"/>
  <line id="Capline-M" style="fill:none;stroke:#27AAE1;opacity:1;stroke-width:0.577;" x1="263" x2="3036" y1="1055.54" y2="1055.54"/>
  <g id="H-reference" style="fill:#27AAE1;stroke:none;" transform="matrix(1 0 0 1 339 1556)">
   <path d="M 54.9316 0 L 57.666 0 L 30.5664 -70.459 L 28.0762 -70.459 L 0.976562 0 L 3.66211 0 L 12.9395 -24.4629 L 45.7031 -24.4629 Z M 29.1992 -67.0898 L 29.4434 -67.0898 L 44.8242 -26.709 L 13.8184 -26.709 Z"/>
  </g>
  <line id="Baseline-L" style="fill:none;stroke:#27AAE1;opacity:1;stroke-width:0.577;" x1="263" x2="3036" y1="1556" y2="1556"/>
  <line id="Capline-L" style="fill:none;stroke:#27AAE1;opacity:1;stroke-width:0.577;" x1="263" x2="3036" y1="1485.54" y2="1485.54"/>
  <rect height="119.336" id="left-margin" style="fill:#00AEEF;stroke:none;opacity:0.4;" width="8.74023" x="1391.3" y="1030.79"/>
  <rect height="119.336" id="right-margin" style="fill:#00AEEF;stroke:none;opacity:0.4;" width="8.74023" x="1499.65" y="1030.79"/>
 </g>
 <g id="Symbols">
  <g id="Black-L" transform="matrix(1 0 0 1 2854.05 1556)">
   <path d="M 79.3457 32.8613 C 116.748 32.8613 147.412 2.19727 147.412 -35.2051 C 147.412 -72.6074 116.748 -103.271 79.2969 -103.271 C 41.8945 -103.271 11.2793 -72.6074 11.2793 -35.2051 C 11.2793 2.19727 41.9434 32.8613 79.3457 32.8613 Z M 79.3457 12.4023 C 52.9785 12.4023 31.7383 -8.83789 31.7383 -35.2051 C 31.7383 -61.5723 52.9297 -82.8125 79.2969 -82.8125 C 105.664 -82.8125 126.953 -61.5723 126.953 -35.2051 C 127.002 -8.83789 105.713 12.4023 79.3457 12.4023 Z M 60.6934 -7.12891 C 64.4531 -7.12891 67.334 -9.7168 67.334 -13.4766 L 67.334 -38.5254 L 66.1133 -46.6309 L 69.5312 -41.2598 L 71.5332 -38.623 C 72.5586 -37.3047 74.1211 -36.7676 75.8301 -36.7676 C 79.0527 -36.7676 81.2988 -39.1602 81.2988 -42.5293 C 81.2988 -44.0918 80.5664 -45.5078 79.541 -46.6797 L 65.8691 -61.5723 C 64.4531 -63.0371 62.7441 -63.8184 60.6934 -63.8184 C 58.6426 -63.8184 56.9824 -63.0859 55.5664 -61.5723 L 41.8457 -46.6797 C 40.8203 -45.5078 40.0879 -44.0918 40.0879 -42.5293 C 40.0879 -39.1602 42.334 -36.7676 45.5566 -36.7676 C 47.2656 -36.7676 48.8281 -37.3047 49.8535 -38.623 L 51.9043 -41.2598 L 55.2734 -46.582 L 54.0527 -38.5254 L 54.0527 -13.4766 C 54.0527 -9.7168 56.9336 -7.12891 60.6934 -7.12891 Z M 98.2422 -7.12891 C 100.293 -7.12891 102.002 -7.91016 103.418 -9.375 L 117.09 -24.2676 C 118.164 -25.4883 118.848 -26.8555 118.848 -28.4668 C 118.848 -31.7871 116.65 -34.1797 113.379 -34.1797 C 111.67 -34.1797 110.107 -33.6426 109.082 -32.3242 L 107.08 -29.6875 L 103.662 -24.3652 L 104.883 -32.4219 L 104.883 -57.4707 C 104.883 -61.2305 102.002 -63.8184 98.2422 -63.8184 C 94.4824 -63.8184 91.6016 -61.2305 91.6016 -57.4707 L 91.6016 -32.4219 L 92.8223 -24.3652 L 89.4531 -29.6875 L 87.4023 -32.3242 C 86.377 -33.6426 84.8145 -34.1797 83.1055 -34.1797 C 79.8828 -34.1797 77.6367 -31.7871 77.6367 -28.4668 C 77.6367 -26.8555 78.3691 -25.4883 79.3945 -24.2676 L 93.1152 -9.375 C 94.5312 -7.91016 96.1914 -7.12891 98.2422 -7.12891 Z"/>
  </g>
  <g id="Heavy-L" transform="matrix(1 0 0 1 2558.39 1556)">
   <path d="M 78.2715 31.7871 C 115.088 31.7871 145.312 1.61133 145.312 -35.2051 C 145.312 -72.0215 115.039 -102.197 78.2715 -102.197 C 41.4551 -102.197 11.2793 -72.0215 11.2793 -35.2051 C 11.2793 1.61133 41.5039 31.7871 78.2715 31.7871 Z M 78.2715 14.0137 C 51.0254 14.0137 29.0527 -7.95898 29.0527 -35.2051 C 29.0527 -62.5 50.9766 -84.4727 78.2715 -84.4727 C 105.518 -84.4727 127.49 -62.5 127.539 -35.2051 C 127.539 -7.95898 105.566 14.0137 78.2715 14.0137 Z M 59.4727 -6.88477 C 62.8906 -6.88477 65.4297 -9.17969 65.4297 -12.5977 L 65.4297 -40.1855 L 64.4043 -48.584 L 68.5059 -42.7734 L 71.4844 -39.209 C 72.3633 -38.0371 73.8281 -37.5488 75.3906 -37.5488 C 78.3203 -37.5488 80.4199 -39.7461 80.4199 -42.7734 C 80.4199 -44.2383 79.7852 -45.459 78.8086 -46.5332 L 64.1602 -62.3047 C 62.8906 -63.623 61.3281 -64.3555 59.4727 -64.3555 C 57.666 -64.3555 56.1523 -63.6719 54.834 -62.3047 L 40.1367 -46.5332 C 39.1602 -45.459 38.5742 -44.2383 38.5742 -42.7734 C 38.5742 -39.7461 40.625 -37.5488 43.6035 -37.5488 C 45.1172 -37.5488 46.5332 -38.0371 47.5098 -39.209 L 50.4883 -42.7734 L 54.541 -48.5352 L 53.5645 -40.1855 L 53.5645 -12.5977 C 53.5645 -9.17969 56.1035 -6.88477 59.4727 -6.88477 Z M 97.2656 -6.88477 C 99.1211 -6.88477 100.684 -7.56836 102.002 -8.93555 L 116.602 -24.707 C 117.578 -25.7324 118.213 -27.002 118.213 -28.4668 C 118.213 -31.4941 116.113 -33.6914 113.184 -33.6914 C 111.621 -33.6914 110.156 -33.2031 109.277 -31.9824 L 106.348 -28.4668 L 102.246 -22.6562 L 103.223 -31.0547 L 103.223 -58.6426 C 103.223 -62.0117 100.684 -64.3555 97.2656 -64.3555 C 93.8965 -64.3555 91.3574 -62.0117 91.3574 -58.6426 L 91.3574 -31.0547 L 92.334 -22.6562 L 88.2812 -28.4668 L 85.3027 -31.9824 C 84.3262 -33.2031 82.9102 -33.6914 81.3965 -33.6914 C 78.418 -33.6914 76.3672 -31.4941 76.3672 -28.4668 C 76.3672 -27.002 76.9531 -25.7324 77.9297 -24.707 L 92.627 -8.93555 C 93.9453 -7.56836 95.459 -6.88477 97.2656 -6.88477 Z"/>
  </g>
  <g id="Bold-L" transform="matrix(1 0 0 1 2262.88 1556)">
   <path d="M 77.0996 30.6152 C 113.232 30.6152 142.92 0.878906 142.92 -35.2051 C 142.92 -71.3379 113.184 -101.025 77.0508 -101.025 C 40.9668 -101.025 11.2793 -71.3379 11.2793 -35.2051 C 11.2793 0.878906 41.0156 30.6152 77.0996 30.6152 Z M 77.0996 15.8691 C 48.8281 15.8691 26.0742 -6.93359 26.0742 -35.2051 C 26.0742 -63.4766 48.7793 -86.2793 77.0508 -86.2793 C 105.371 -86.2793 128.125 -63.4766 128.174 -35.2051 C 128.174 -6.93359 105.371 15.8691 77.0996 15.8691 Z M 58.1055 -6.5918 C 61.084 -6.5918 63.2812 -8.64258 63.2812 -11.6211 L 63.2812 -42.041 L 62.5 -50.7812 L 67.4316 -44.4336 L 71.3867 -39.8438 C 72.2168 -38.8184 73.4863 -38.3789 74.8535 -38.3789 C 77.4902 -38.3789 79.3945 -40.332 79.3945 -43.0176 C 79.3945 -44.3359 78.8574 -45.459 78.0273 -46.3867 L 62.3047 -63.0859 C 61.1328 -64.3066 59.668 -64.9414 58.1055 -64.9414 C 56.5918 -64.9414 55.2246 -64.3555 54.0039 -63.0859 L 38.2324 -46.3867 C 37.3535 -45.459 36.8652 -44.3359 36.8652 -43.0176 C 36.8652 -40.332 38.7207 -38.3789 41.3574 -38.3789 C 42.7734 -38.3789 43.9941 -38.8184 44.8242 -39.8438 L 48.877 -44.4336 L 53.7109 -50.7324 L 52.9297 -42.041 L 52.9297 -11.6211 C 52.9297 -8.64258 55.1758 -6.5918 58.1055 -6.5918 Z M 96.1914 -6.5918 C 97.7539 -6.5918 99.2188 -7.17773 100.342 -8.39844 L 116.113 -25.1465 C 116.943 -26.0254 117.48 -27.1484 117.48 -28.4668 C 117.48 -31.1523 115.576 -33.1055 112.939 -33.1055 C 111.572 -33.1055 110.303 -32.666 109.473 -31.6406 L 105.518 -27.0508 L 100.586 -20.752 L 101.367 -29.4922 L 101.367 -59.9121 C 101.367 -62.8906 99.1699 -64.9414 96.1914 -64.9414 C 93.2129 -64.9414 91.0156 -62.8906 91.0156 -59.9121 L 91.0156 -29.4922 L 91.7969 -20.8008 L 86.9629 -27.0508 L 82.9102 -31.6406 C 82.0801 -32.666 80.8105 -33.1055 79.4434 -33.1055 C 76.8066 -33.1055 74.9512 -31.1523 74.9512 -28.4668 C 74.9512 -27.1484 75.4395 -26.0254 76.3184 -25.1465 L 92.0898 -8.39844 C 93.3105 -7.17773 94.6289 -6.5918 96.1914 -6.5918 Z"/>
  </g>
  <g id="Semibold-L" transform="matrix(1 0 0 1 1966.97 1556)">
   <path d="M 76.2695 29.7852 C 111.914 29.7852 141.309 0.439453 141.309 -35.2051 C 141.309 -70.8496 111.865 -100.244 76.2695 -100.244 C 40.625 -100.244 11.2793 -70.8496 11.2793 -35.2051 C 11.2793 0.439453 40.6738 29.7852 76.2695 29.7852 Z M 76.2695 17.0898 C 47.3145 17.0898 24.0234 -6.25 24.0234 -35.2051 C 24.0234 -64.209 47.2656 -87.5 76.2695 -87.5 C 105.225 -87.5 128.564 -64.209 128.613 -35.2051 C 128.662 -6.25 105.273 17.0898 76.2695 17.0898 Z M 57.1777 -6.39648 C 59.8633 -6.39648 61.8164 -8.25195 61.8164 -10.9375 L 61.8164 -43.3105 L 61.1816 -52.2949 L 66.6504 -45.6055 L 71.3379 -40.332 C 72.0703 -39.4043 73.2422 -38.9648 74.5117 -38.9648 C 76.9531 -38.9648 78.7109 -40.7715 78.7109 -43.2129 C 78.7109 -44.4336 78.2715 -45.459 77.4414 -46.2891 L 60.9863 -63.6719 C 59.9121 -64.7949 58.5938 -65.332 57.1777 -65.332 C 55.8105 -65.332 54.5898 -64.7949 53.4668 -63.6719 L 36.9141 -46.2891 C 36.1328 -45.459 35.6934 -44.4336 35.6934 -43.2129 C 35.6934 -40.7715 37.4512 -38.9648 39.8438 -38.9648 C 41.1133 -38.9648 42.2363 -39.4043 43.0176 -40.332 L 47.8027 -45.6055 L 53.1738 -52.2461 L 52.5391 -43.3105 L 52.5391 -10.9375 C 52.5391 -8.25195 54.4922 -6.39648 57.1777 -6.39648 Z M 95.459 -6.39648 C 96.8262 -6.39648 98.1445 -6.93359 99.2188 -8.05664 L 115.723 -25.4395 C 116.504 -26.2695 116.992 -27.2949 116.992 -28.5156 C 116.992 -30.957 115.186 -32.7637 112.793 -32.7637 C 111.523 -32.7637 110.352 -32.3242 109.619 -31.3965 L 104.932 -26.123 L 99.4629 -19.4336 L 100.098 -28.418 L 100.098 -60.791 C 100.098 -63.4766 98.1445 -65.332 95.459 -65.332 C 92.7734 -65.332 90.8203 -63.4766 90.8203 -60.791 L 90.8203 -28.418 L 91.4062 -19.4824 L 86.0352 -26.123 L 81.2988 -31.3965 C 80.5176 -32.3242 79.3945 -32.7637 78.125 -32.7637 C 75.6836 -32.7637 73.9258 -30.957 73.9258 -28.5156 C 73.9258 -27.2949 74.3652 -26.2695 75.1953 -25.4395 L 91.748 -8.05664 C 92.8223 -6.88477 94.0918 -6.39648 95.459 -6.39648 Z"/>
  </g>
  <g id="Medium-L" transform="matrix(1 0 0 1 1670.87 1556)">
   <path d="M 75.6836 29.1992 C 110.938 29.1992 140.088 0.0488281 140.088 -35.2051 C 140.088 -70.459 110.889 -99.6094 75.6348 -99.6094 C 40.3809 -99.6094 11.2793 -70.459 11.2793 -35.2051 C 11.2793 0.0488281 40.3809 29.1992 75.6836 29.1992 Z M 75.6836 18.0664 C 46.1426 18.0664 22.4609 -5.71289 22.4609 -35.2051 C 22.4609 -64.6973 46.1426 -88.4766 75.6348 -88.4766 C 105.127 -88.4766 128.906 -64.6973 128.906 -35.2051 C 128.955 -5.71289 105.176 18.0664 75.6836 18.0664 Z M 56.4453 -6.25 C 58.9355 -6.25 60.6934 -7.95898 60.6934 -10.4004 L 60.6934 -44.2383 L 60.2051 -53.418 L 66.1133 -46.4844 L 71.3379 -40.625 C 72.0215 -39.7949 73.0957 -39.4043 74.2676 -39.4043 C 76.5137 -39.4043 78.2227 -41.1133 78.2227 -43.3594 C 78.2227 -44.4824 77.7832 -45.459 77.0508 -46.1914 L 59.9609 -64.0625 C 58.9844 -65.1367 57.7148 -65.625 56.4453 -65.625 C 55.2246 -65.625 54.1016 -65.1855 53.0273 -64.0625 L 35.8887 -46.1914 C 35.1562 -45.459 34.7656 -44.4824 34.7656 -43.3594 C 34.7656 -41.1133 36.4258 -39.4043 38.6719 -39.4043 C 39.8926 -39.4043 40.918 -39.7949 41.6016 -40.625 L 46.9238 -46.4844 L 52.7344 -53.3691 L 52.2461 -44.2383 L 52.2461 -10.4004 C 52.2461 -7.95898 54.0039 -6.25 56.4453 -6.25 Z M 94.873 -6.25 C 96.1426 -6.25 97.3633 -6.73828 98.3887 -7.8125 L 115.479 -25.6348 C 116.211 -26.416 116.602 -27.3926 116.602 -28.5156 C 116.602 -30.7617 114.941 -32.4707 112.695 -32.4707 C 111.475 -32.4707 110.4 -32.0801 109.717 -31.2012 L 104.492 -25.3906 L 98.584 -18.4082 L 99.1211 -27.6367 L 99.1211 -61.4746 C 99.1211 -63.916 97.3633 -65.625 94.873 -65.625 C 92.4316 -65.625 90.625 -63.916 90.625 -61.4746 L 90.625 -27.6367 L 91.1621 -18.5059 L 85.3516 -25.3906 L 80.0293 -31.2012 C 79.2969 -32.0801 78.2715 -32.4707 77.0996 -32.4707 C 74.8535 -32.4707 73.1934 -30.7617 73.1934 -28.5156 C 73.1934 -27.3926 73.584 -26.416 74.3164 -25.6348 L 91.4551 -7.8125 C 92.4805 -6.68945 93.6523 -6.25 94.873 -6.25 Z"/>
  </g>
  <g id="Regular-L" transform="matrix(1 0 0 1 1374.97 1556)">
   <path d="M 74.8535 28.3691 C 109.668 28.3691 138.477 -0.390625 138.477 -35.2051 C 138.477 -70.0195 109.619 -98.7793 74.8047 -98.7793 C 40.0391 -98.7793 11.2793 -70.0195 11.2793 -35.2051 C 11.2793 -0.390625 40.0879 28.3691 74.8535 28.3691 Z M 74.8535 19.2871 C 44.6777 19.2871 20.4102 -5.0293 20.4102 -35.2051 C 20.4102 -65.3809 44.6289 -89.6973 74.8047 -89.6973 C 105.029 -89.6973 129.297 -65.3809 129.346 -35.2051 C 129.395 -5.0293 105.078 19.2871 74.8535 19.2871 Z M 55.5176 -6.00586 C 57.7148 -6.00586 59.2285 -7.56836 59.2285 -9.7168 L 59.2285 -45.5078 L 58.8867 -54.9316 L 65.332 -47.6074 L 71.2891 -41.0645 C 71.875 -40.332 72.8516 -39.9902 73.9258 -39.9902 C 75.9277 -39.9902 77.5391 -41.5039 77.5391 -43.5547 C 77.5391 -44.5801 77.1484 -45.459 76.5137 -46.0938 L 58.6914 -64.5996 C 57.7637 -65.5762 56.6406 -66.0645 55.5176 -66.0645 C 54.4922 -66.0645 53.418 -65.625 52.4902 -64.5996 L 34.5703 -46.0938 C 33.9355 -45.459 33.5938 -44.5801 33.5938 -43.5547 C 33.5938 -41.5039 35.1562 -39.9902 37.1582 -39.9902 C 38.2324 -39.9902 39.1602 -40.332 39.7949 -41.0645 L 45.8496 -47.6074 L 52.1973 -54.834 L 51.8066 -45.5078 L 51.8066 -9.7168 C 51.8066 -7.56836 53.3691 -6.00586 55.5176 -6.00586 Z M 94.1406 -6.00586 C 95.2148 -6.00586 96.3867 -6.49414 97.2656 -7.4707 L 115.088 -25.9766 C 115.771 -26.6113 116.113 -27.4902 116.113 -28.5156 C 116.113 -30.5664 114.551 -32.0801 112.5 -32.0801 C 111.426 -32.0801 110.498 -31.7383 109.863 -30.957 L 103.955 -24.4629 L 97.5098 -17.1387 L 97.8516 -26.5625 L 97.8516 -62.3047 C 97.8516 -64.502 96.3379 -66.0645 94.1406 -66.0645 C 91.9922 -66.0645 90.4297 -64.502 90.4297 -62.3047 L 90.4297 -26.5625 L 90.7715 -17.2363 L 84.4727 -24.4629 L 78.418 -30.957 C 77.7832 -31.7383 76.8555 -32.0801 75.7812 -32.0801 C 73.7305 -32.0801 72.2168 -30.5664 72.2168 -28.5156 C 72.2168 -27.4902 72.5098 -26.6113 73.1934 -25.9766 L 91.0645 -7.4707 C 92.041 -6.44531 93.0664 -6.00586 94.1406 -6.00586 Z"/>
  </g>
  <g id="Light-L" transform="matrix(1 0 0 1 1079.18 1556)">
   <path d="M 73.9258 27.4902 C 108.301 27.4902 136.621 -0.830078 136.621 -35.1562 C 136.621 -69.5312 108.252 -97.8516 73.9258 -97.8516 C 39.5508 -97.8516 11.2793 -69.5312 11.2793 -35.1562 C 11.2793 -0.830078 39.5996 27.4902 73.9258 27.4902 Z M 73.9258 20.6055 C 43.1152 20.6055 18.2129 -4.3457 18.2129 -35.1562 C 18.2129 -66.0156 43.0664 -90.918 73.9258 -90.918 C 104.736 -90.918 129.688 -66.0156 129.736 -35.1562 C 129.736 -4.3457 104.785 20.6055 73.9258 20.6055 Z M 54.6875 -5.56641 C 56.4453 -5.56641 57.6172 -6.78711 57.6172 -8.49609 L 57.6172 -48.5352 L 57.373 -57.6172 L 64.502 -49.9512 L 72.168 -41.9434 C 72.6562 -41.3086 73.3887 -41.0156 74.2676 -41.0156 C 75.8301 -41.0156 77.0996 -42.2363 77.0996 -43.7988 C 77.0996 -44.6289 76.8066 -45.2637 76.2695 -45.8008 L 57.0801 -65.4297 C 56.3965 -66.1621 55.5176 -66.5039 54.6875 -66.5039 C 53.8574 -66.5039 53.0762 -66.2109 52.3438 -65.4297 L 33.1543 -45.8008 C 32.6172 -45.2637 32.373 -44.6289 32.373 -43.7988 C 32.373 -42.2363 33.5449 -41.0156 35.1562 -41.0156 C 35.9863 -41.0156 36.7188 -41.3086 37.2559 -41.9434 L 44.9707 -49.9512 L 52.002 -57.5195 L 51.709 -48.5352 L 51.709 -8.49609 C 51.709 -6.78711 52.9785 -5.56641 54.6875 -5.56641 Z M 93.2617 -5.56641 C 94.1406 -5.56641 94.9707 -5.9082 95.6543 -6.64062 L 114.844 -26.2695 C 115.381 -26.8066 115.674 -27.4414 115.674 -28.2715 C 115.674 -29.834 114.453 -31.0547 112.842 -31.0547 C 112.012 -31.0547 111.279 -30.7617 110.742 -30.127 L 103.076 -22.1191 L 95.9473 -14.4531 L 96.2402 -23.5352 L 96.2402 -63.5254 C 96.2402 -65.2832 95.0195 -66.5039 93.2617 -66.5039 C 91.5527 -66.5039 90.332 -65.2832 90.332 -63.5254 L 90.332 -23.5352 L 90.625 -14.5508 L 83.5938 -22.1191 L 75.8789 -30.127 C 75.293 -30.7617 74.6094 -31.0547 73.7793 -31.0547 C 72.168 -31.0547 70.9473 -29.834 70.9473 -28.2715 C 70.9473 -27.4414 71.2402 -26.8066 71.7773 -26.2695 L 90.9668 -6.64062 C 91.6504 -5.85938 92.4805 -5.56641 93.2617 -5.56641 Z"/>
  </g>
  <g id="Thin-L" transform="matrix(1 0 0 1 783.693 1556)">
   <path d="M 72.7051 26.3184 C 106.494 26.3184 134.18 -1.36719 134.18 -35.1074 C 134.18 -68.8965 106.494 -96.582 72.7051 -96.582 C 38.9648 -96.582 11.2793 -68.8965 11.2793 -35.1074 C 11.2793 -1.36719 38.9648 26.3184 72.7051 26.3184 Z M 72.7051 22.3145 C 41.0156 22.3145 15.2832 -3.41797 15.2832 -35.1074 C 15.2832 -66.8457 41.0156 -92.5781 72.7051 -92.5781 C 104.395 -92.5781 130.176 -66.8457 130.176 -35.1074 C 130.176 -3.41797 104.443 22.3145 72.7051 22.3145 Z M 53.5645 -4.93164 C 54.7363 -4.93164 55.5176 -5.71289 55.5176 -6.88477 L 55.5176 -52.5391 L 55.3223 -61.1328 L 63.3789 -53.0273 L 73.291 -43.0176 C 73.7305 -42.5781 74.1211 -42.3828 74.707 -42.3828 C 75.7324 -42.3828 76.5137 -43.1641 76.5137 -44.0918 C 76.5137 -44.6777 76.3184 -45.0684 75.9277 -45.4102 L 54.9316 -66.5039 C 54.541 -66.8945 54.0527 -67.1387 53.5645 -67.1387 C 53.0762 -67.1387 52.5879 -66.9434 52.1973 -66.5039 L 31.25 -45.4102 C 30.8594 -45.0684 30.7129 -44.6777 30.7129 -44.0918 C 30.7129 -43.1641 31.4453 -42.3828 32.4707 -42.3828 C 33.0566 -42.3828 33.4473 -42.5781 33.8867 -43.0176 L 43.8477 -53.0273 L 51.8066 -61.0352 L 51.6113 -52.5391 L 51.6113 -6.88477 C 51.6113 -5.71289 52.4414 -4.93164 53.5645 -4.93164 Z M 92.1387 -4.93164 C 92.627 -4.93164 93.1641 -5.17578 93.5547 -5.56641 L 114.551 -26.6602 C 114.893 -27.002 115.088 -27.3926 115.088 -27.9785 C 115.088 -28.9062 114.307 -29.6875 113.281 -29.6875 C 112.744 -29.6875 112.354 -29.4922 111.914 -29.0527 L 101.953 -19.043 L 93.9453 -10.9375 L 94.0918 -19.5312 L 94.0918 -65.1367 C 94.0918 -66.3574 93.3594 -67.1387 92.1387 -67.1387 C 91.0156 -67.1387 90.1855 -66.3574 90.1855 -65.1367 L 90.1855 -19.5312 L 90.3809 -11.0352 L 82.4219 -19.043 L 72.5098 -29.0527 C 72.0703 -29.4922 71.6309 -29.6875 71.0938 -29.6875 C 70.0684 -29.6875 69.2871 -28.9062 69.2871 -27.9785 C 69.2871 -27.3926 69.4824 -27.002 69.8242 -26.6602 L 90.7715 -5.56641 C 91.1621 -5.12695 91.6504 -4.93164 92.1387 -4.93164 Z"/>
  </g>
  <g id="Ultralight-L" transform="matrix(1 0 0 1 487.616 1556)">
   <path d="M 72.1191 25.7324 C 105.566 25.7324 132.91 -1.61133 132.91 -35.1074 C 132.91 -68.5547 105.566 -95.8984 72.1191 -95.8984 C 38.623 -95.8984 11.2793 -68.5547 11.2793 -35.1074 C 11.2793 -1.61133 38.623 25.7324 72.1191 25.7324 Z M 72.1191 23.2422 C 39.9414 23.2422 13.7695 -2.97852 13.7695 -35.1074 C 13.7695 -67.2363 39.9414 -93.4082 72.1191 -93.4082 C 104.248 -93.4082 130.42 -67.2363 130.42 -35.1074 C 130.42 -2.97852 104.248 23.2422 72.1191 23.2422 Z M 52.9785 -4.63867 C 53.9062 -4.63867 54.4434 -5.17578 54.4434 -6.10352 L 54.4434 -54.5898 L 54.2969 -62.9395 L 62.793 -54.5898 L 73.877 -43.6035 C 74.2676 -43.2129 74.5117 -43.0664 74.9023 -43.0664 C 75.6836 -43.0664 76.1719 -43.6035 76.1719 -44.2871 C 76.1719 -44.6777 76.0742 -44.9219 75.7812 -45.2148 L 53.8574 -67.041 C 53.6133 -67.2852 53.3203 -67.4316 52.9785 -67.4316 C 52.6367 -67.4316 52.3438 -67.2852 52.0996 -67.041 L 30.2734 -45.2148 C 29.9805 -44.9219 29.834 -44.6777 29.834 -44.2871 C 29.834 -43.6035 30.3711 -43.0664 31.1035 -43.0664 C 31.543 -43.0664 31.7871 -43.2129 32.1777 -43.6035 L 43.2617 -54.5898 L 51.6602 -62.8418 L 51.5625 -54.5898 L 51.5625 -6.10352 C 51.5625 -5.17578 52.1484 -4.63867 52.9785 -4.63867 Z M 91.6016 -4.63867 C 91.8945 -4.63867 92.1875 -4.78516 92.4805 -5.0293 L 114.355 -26.8555 C 114.648 -27.0996 114.795 -27.3926 114.795 -27.7832 C 114.795 -28.4668 114.258 -29.0039 113.525 -29.0039 C 113.135 -29.0039 112.891 -28.8574 112.5 -28.4668 L 101.416 -17.4805 L 92.8711 -9.13086 L 93.0176 -17.4805 L 93.0176 -65.9668 C 93.0176 -66.8945 92.4805 -67.4316 91.6016 -67.4316 C 90.7715 -67.4316 90.1367 -66.8945 90.1367 -65.9668 L 90.1367 -17.4805 L 90.2832 -9.22852 L 81.8359 -17.4805 L 70.752 -28.4668 C 70.4102 -28.8574 70.1172 -29.0039 69.7266 -29.0039 C 68.9941 -29.0039 68.457 -28.4668 68.457 -27.7832 C 68.457 -27.3926 68.6035 -27.0996 68.8477 -26.8555 L 90.6738 -5.0293 C 90.918 -4.78516 91.2598 -4.63867 91.6016 -4.63867 Z"/>
  </g>
  <g id="Black-M" transform="matrix(1 0 0 1 2870.97 1126)">
   <path d="M 62.4023 18.457 C 91.9922 18.457 116.113 -5.61523 116.113 -35.2051 C 116.113 -64.7949 91.9922 -88.8672 62.4023 -88.8672 C 32.8125 -88.8672 8.74023 -64.7949 8.74023 -35.2051 C 8.74023 -5.61523 32.8125 18.457 62.4023 18.457 Z M 62.4023 0.195312 C 42.8711 0.195312 27.002 -15.625 27.002 -35.2051 C 27.002 -54.7363 42.8711 -70.6055 62.4023 -70.6055 C 81.9824 -70.6055 97.8027 -54.7363 97.8027 -35.2051 C 97.8027 -15.625 81.9824 0.195312 62.4023 0.195312 Z M 48.2422 -13.5742 C 51.416 -13.5742 53.8574 -15.7227 53.8574 -18.8965 L 53.8574 -37.207 L 52.7344 -42.8223 L 54.7363 -39.1113 L 55.957 -37.5488 C 56.8359 -36.4258 58.1543 -35.9863 59.5215 -35.9863 C 62.207 -35.9863 63.9648 -37.8906 63.9648 -40.6738 C 63.9648 -41.9922 63.3301 -43.1152 62.4512 -44.0918 L 52.4902 -55.0781 C 51.3672 -56.2988 50 -56.9336 48.2422 -56.9336 C 46.4844 -56.9336 45.0684 -56.2988 43.9453 -55.0781 L 33.9844 -44.0918 C 33.1055 -43.1152 32.4707 -41.9922 32.4707 -40.6738 C 32.4707 -37.8906 34.2285 -35.9863 36.9141 -35.9863 C 38.2812 -35.9863 39.5996 -36.4258 40.4785 -37.5488 L 41.6992 -39.1113 L 43.7012 -42.8223 L 42.5781 -37.207 L 42.5781 -18.8965 C 42.5781 -15.7227 45.0195 -13.5742 48.2422 -13.5742 Z M 77.002 -13.5742 C 78.7598 -13.5742 80.127 -14.209 81.25 -15.3809 L 91.2598 -26.3672 C 92.0898 -27.3926 92.7246 -28.5156 92.7246 -29.834 C 92.7246 -32.5684 91.0156 -34.5215 88.2812 -34.5215 C 86.9141 -34.5215 85.5957 -34.082 84.7168 -32.959 L 83.4961 -31.3477 L 81.4941 -27.6855 L 82.666 -33.3008 L 82.666 -51.5625 C 82.666 -54.7852 80.1758 -56.9336 77.002 -56.9336 C 73.7793 -56.9336 71.3379 -54.7852 71.3379 -51.5625 L 71.3379 -33.3008 L 72.4609 -27.6855 L 70.459 -31.3477 L 69.2383 -32.959 C 68.3594 -34.082 67.041 -34.5215 65.6738 -34.5215 C 62.9883 -34.5215 61.2305 -32.5684 61.2305 -29.834 C 61.2305 -28.5156 61.8652 -27.3926 62.7441 -26.3672 L 72.7539 -15.3809 C 73.877 -14.209 75.2441 -13.5742 77.002 -13.5742 Z"/>
  </g>
  <g id="Heavy-M" transform="matrix(1 0 0 1 2575.19 1126)">
   <path d="M 61.5234 17.5781 C 90.5273 17.5781 114.258 -6.15234 114.258 -35.2051 C 114.258 -64.2578 90.5273 -87.9883 61.4746 -87.9883 C 32.4707 -87.9883 8.74023 -64.2578 8.74023 -35.2051 C 8.74023 -6.15234 32.4707 17.5781 61.5234 17.5781 Z M 61.5234 1.66016 C 41.1133 1.66016 24.6582 -14.8438 24.6582 -35.2051 C 24.6582 -55.5664 41.1133 -72.0703 61.4746 -72.0703 C 81.8848 -72.0703 98.3398 -55.5664 98.3398 -35.2051 C 98.3398 -14.8438 81.8848 1.66016 61.5234 1.66016 Z M 47.1191 -13.4277 C 50 -13.4277 52.1973 -15.3809 52.1973 -18.2617 L 52.1973 -38.2324 L 51.2695 -44.2871 L 53.9062 -40.1367 L 55.6641 -37.9395 C 56.4453 -36.9141 57.666 -36.5234 58.9844 -36.5234 C 61.4258 -36.5234 63.1348 -38.3301 63.1348 -40.8691 C 63.1348 -42.0898 62.5488 -43.1152 61.7676 -44.043 L 51.0254 -55.6641 C 50 -56.7871 48.6816 -57.373 47.1191 -57.373 C 45.5566 -57.373 44.2871 -56.7871 43.2129 -55.6641 L 32.4707 -44.043 C 31.6895 -43.1152 31.1523 -42.0898 31.1523 -40.8691 C 31.1523 -38.3301 32.8125 -36.5234 35.2539 -36.5234 C 36.5723 -36.5234 37.7441 -36.9141 38.5742 -37.9395 L 40.3809 -40.1367 L 42.9688 -44.2871 L 41.9922 -38.2324 L 41.9922 -18.2617 C 41.9922 -15.3809 44.2383 -13.4277 47.1191 -13.4277 Z M 76.1719 -13.4277 C 77.7344 -13.4277 79.0039 -13.9648 80.0781 -15.0879 L 90.7715 -26.709 C 91.6016 -27.6367 92.1387 -28.6621 92.1387 -29.8828 C 92.1387 -32.4219 90.4785 -34.2285 87.9883 -34.2285 C 86.7188 -34.2285 85.498 -33.8379 84.7168 -32.8125 L 82.9102 -30.6152 L 80.3223 -26.5137 L 81.25 -32.5684 L 81.25 -52.4902 C 81.25 -55.4199 79.0527 -57.373 76.1719 -57.373 C 73.2422 -57.373 71.0449 -55.4199 71.0449 -52.4902 L 71.0449 -32.5684 L 72.0215 -26.5137 L 69.3848 -30.6152 L 67.5781 -32.8125 C 66.7969 -33.8379 65.5762 -34.2285 64.3066 -34.2285 C 61.8164 -34.2285 60.1562 -32.4219 60.1562 -29.8828 C 60.1562 -28.6621 60.6934 -27.6367 61.5234 -26.709 L 72.2656 -15.0879 C 73.291 -13.9648 74.5605 -13.4277 76.1719 -13.4277 Z"/>
  </g>
  <g id="Bold-M" transform="matrix(1 0 0 1 2279.5 1126)">
   <path d="M 60.498 16.5039 C 88.8672 16.5039 112.207 -6.78711 112.207 -35.2051 C 112.207 -63.623 88.8672 -86.9629 60.4492 -86.9629 C 32.0312 -86.9629 8.74023 -63.623 8.74023 -35.2051 C 8.74023 -6.78711 32.0801 16.5039 60.498 16.5039 Z M 60.498 3.22266 C 39.1602 3.22266 22.0703 -13.916 22.0703 -35.2051 C 22.0703 -56.4941 39.1602 -73.6816 60.4492 -73.6816 C 81.7383 -73.6816 98.9258 -56.4941 98.9258 -35.2051 C 98.9746 -13.916 81.7871 3.22266 60.498 3.22266 Z M 45.8496 -13.2324 C 48.4375 -13.2324 50.3418 -14.9902 50.3418 -17.5293 L 50.3418 -39.3555 L 49.6094 -45.8984 L 52.9297 -41.3086 L 55.3711 -38.4277 C 56.0547 -37.5488 57.1289 -37.1582 58.3008 -37.1582 C 60.5469 -37.1582 62.1582 -38.8184 62.1582 -41.1133 C 62.1582 -42.2363 61.6699 -43.1641 60.9375 -43.9941 L 49.4141 -56.2988 C 48.4375 -57.373 47.2656 -57.8613 45.8496 -57.8613 C 44.5312 -57.8613 43.3594 -57.373 42.334 -56.2988 L 30.8105 -43.9941 C 30.0781 -43.1641 29.6387 -42.2363 29.6387 -41.1133 C 29.6387 -38.8184 31.2012 -37.1582 33.4473 -37.1582 C 34.6191 -37.1582 35.6934 -37.5488 36.377 -38.4277 L 38.8672 -41.3086 L 42.1387 -45.8984 L 41.4062 -39.3555 L 41.4062 -17.5293 C 41.4062 -14.9902 43.3105 -13.2324 45.8496 -13.2324 Z M 75.1953 -13.2324 C 76.6113 -13.2324 77.7832 -13.7207 78.7598 -14.7949 L 90.2832 -27.1484 C 91.0156 -27.9297 91.5039 -28.8574 91.5039 -29.9805 C 91.5039 -32.2754 89.8926 -33.9355 87.6465 -33.9355 C 86.4746 -33.9355 85.4004 -33.5938 84.7168 -32.666 L 82.2754 -29.7852 L 78.9551 -25.1953 L 79.6875 -31.7383 L 79.6875 -53.5645 C 79.6875 -56.1035 77.7832 -57.8613 75.1953 -57.8613 C 72.6562 -57.8613 70.752 -56.1035 70.752 -53.5645 L 70.752 -31.7383 L 71.4844 -25.2441 L 68.2129 -29.7852 L 65.7227 -32.666 C 65.0391 -33.5938 63.9648 -33.9355 62.793 -33.9355 C 60.5469 -33.9355 58.9844 -32.2754 58.9844 -29.9805 C 58.9844 -28.8574 59.4238 -27.9297 60.1562 -27.1484 L 71.6797 -14.7949 C 72.7051 -13.7207 73.877 -13.2324 75.1953 -13.2324 Z"/>
  </g>
  <g id="Semibold-M" transform="matrix(1 0 0 1 1983.5 1126)">
   <path d="M 59.7656 15.8203 C 87.7441 15.8203 110.791 -7.22656 110.791 -35.2051 C 110.791 -63.1836 87.6953 -86.2793 59.7656 -86.2793 C 31.7871 -86.2793 8.74023 -63.1836 8.74023 -35.2051 C 8.74023 -7.22656 31.7871 15.8203 59.7656 15.8203 Z M 59.7656 4.3457 C 37.8418 4.3457 20.2637 -13.2812 20.2637 -35.2051 C 20.2637 -57.1289 37.793 -74.8047 59.7656 -74.8047 C 81.6895 -74.8047 99.3164 -57.1289 99.3652 -35.2051 C 99.3652 -13.2812 81.6895 4.3457 59.7656 4.3457 Z M 45.0195 -13.0859 C 47.3633 -13.0859 49.0723 -14.6973 49.0723 -17.041 L 49.0723 -40.1367 L 48.4863 -47.0215 L 52.2949 -42.0898 L 55.127 -38.7207 C 55.7617 -37.9395 56.7871 -37.5977 57.8613 -37.5977 C 59.9609 -37.5977 61.4746 -39.1113 61.4746 -41.2598 C 61.4746 -42.2852 61.084 -43.2129 60.4004 -43.9453 L 48.3398 -56.7871 C 47.4121 -57.7637 46.2402 -58.252 45.0195 -58.252 C 43.7988 -58.252 42.7246 -57.7637 41.748 -56.7871 L 29.6387 -43.9453 C 28.9551 -43.2129 28.5645 -42.2852 28.5645 -41.2598 C 28.5645 -39.1113 30.0781 -37.5977 32.1777 -37.5977 C 33.252 -37.5977 34.2285 -37.9395 34.9121 -38.7207 L 37.8418 -42.0898 L 41.5527 -46.9727 L 40.9668 -40.1367 L 40.9668 -17.041 C 40.9668 -14.6973 42.6758 -13.0859 45.0195 -13.0859 Z M 74.5605 -13.0859 C 75.7812 -13.0859 76.9531 -13.5742 77.8809 -14.5508 L 89.9414 -27.3926 C 90.625 -28.125 91.0645 -29.0039 91.0645 -30.0781 C 91.0645 -32.1777 89.502 -33.7402 87.4023 -33.7402 C 86.3281 -33.7402 85.3027 -33.3984 84.668 -32.5684 L 81.8359 -29.1992 L 78.0273 -24.2676 L 78.6133 -31.2012 L 78.6133 -54.2969 C 78.6133 -56.5918 76.9043 -58.252 74.5605 -58.252 C 72.2168 -58.252 70.5078 -56.5918 70.5078 -54.2969 L 70.5078 -31.2012 L 71.0938 -24.3164 L 67.3828 -29.1992 L 64.4531 -32.5684 C 63.8184 -33.3984 62.793 -33.7402 61.7188 -33.7402 C 59.6191 -33.7402 58.1543 -32.1777 58.1543 -30.0781 C 58.1543 -29.0039 58.4961 -28.125 59.1797 -27.3926 L 71.3379 -14.5508 C 72.2656 -13.5254 73.3398 -13.0859 74.5605 -13.0859 Z"/>
  </g>
  <g id="Medium-M" transform="matrix(1 0 0 1 1687.3 1126)">
   <path d="M 59.2285 15.2832 C 86.9141 15.2832 109.766 -7.56836 109.766 -35.2051 C 109.766 -62.8906 86.8652 -85.7422 59.1797 -85.7422 C 31.543 -85.7422 8.74023 -62.8906 8.74023 -35.2051 C 8.74023 -7.56836 31.5918 15.2832 59.2285 15.2832 Z M 59.2285 5.17578 C 36.8164 5.17578 18.8965 -12.8418 18.8965 -35.2051 C 18.8965 -57.6172 36.8164 -75.6348 59.1797 -75.6348 C 81.5918 -75.6348 99.6094 -57.6172 99.6582 -35.2051 C 99.707 -12.8418 81.6406 5.17578 59.2285 5.17578 Z M 44.3848 -12.9883 C 46.5332 -12.9883 48.0957 -14.502 48.0957 -16.6504 L 48.0957 -40.7227 L 47.6074 -47.9004 L 51.7578 -42.7246 L 54.9805 -38.9648 C 55.5176 -38.2324 56.4941 -37.8906 57.5195 -37.8906 C 59.5215 -37.8906 60.9863 -39.3555 60.9863 -41.4062 C 60.9863 -42.3828 60.5957 -43.2129 59.9609 -43.8965 L 47.5098 -57.0801 C 46.582 -58.0566 45.5078 -58.4961 44.3848 -58.4961 C 43.2617 -58.4961 42.2363 -58.1055 41.3086 -57.0801 L 28.7598 -43.8965 C 28.125 -43.2129 27.7832 -42.3828 27.7832 -41.4062 C 27.7832 -39.3555 29.248 -37.8906 31.2012 -37.8906 C 32.2266 -37.8906 33.1543 -38.2324 33.7891 -38.9648 L 37.0605 -42.7246 L 41.1133 -47.8516 L 40.625 -40.7227 L 40.625 -16.6504 C 40.625 -14.502 42.2363 -12.9883 44.3848 -12.9883 Z M 74.0723 -12.9883 C 75.1953 -12.9883 76.3184 -13.4277 77.1973 -14.4043 L 89.6973 -27.5879 C 90.332 -28.2715 90.6738 -29.1016 90.6738 -30.0781 C 90.6738 -32.1289 89.209 -33.5938 87.2559 -33.5938 C 86.2305 -33.5938 85.2539 -33.252 84.668 -32.5195 L 81.4941 -28.7598 L 77.3438 -23.6328 L 77.7832 -30.8105 L 77.7832 -54.834 C 77.7832 -56.9824 76.2207 -58.4961 74.0723 -58.4961 C 71.9238 -58.4961 70.3613 -56.9824 70.3613 -54.834 L 70.3613 -30.8105 L 70.8008 -23.6816 L 66.748 -28.7598 L 63.4766 -32.5195 C 62.8906 -33.252 61.9629 -33.5938 60.9375 -33.5938 C 58.9355 -33.5938 57.5195 -32.1289 57.5195 -30.0781 C 57.5195 -29.1016 57.8613 -28.2715 58.4961 -27.5879 L 71.0449 -14.4043 C 71.9727 -13.4277 72.998 -12.9883 74.0723 -12.9883 Z"/>
  </g>
  <g id="Regular-M" transform="matrix(1 0 0 1 1391.3 1126)">
   <path d="M 58.5449 14.5508 C 85.791 14.5508 108.35 -8.00781 108.35 -35.2539 C 108.35 -62.4512 85.7422 -85.0586 58.4961 -85.0586 C 31.2988 -85.0586 8.74023 -62.4512 8.74023 -35.2539 C 8.74023 -8.00781 31.3477 14.5508 58.5449 14.5508 Z M 58.5449 6.25 C 35.498 6.25 17.0898 -12.207 17.0898 -35.2539 C 17.0898 -58.252 35.4492 -76.7578 58.4961 -76.7578 C 81.543 -76.7578 100 -58.252 100.049 -35.2539 C 100.098 -12.207 81.5918 6.25 58.5449 6.25 Z M 43.5059 -12.8418 C 45.459 -12.8418 46.8262 -14.2578 46.8262 -16.1621 L 46.8262 -41.4551 L 46.4844 -48.9746 L 51.123 -43.5059 L 54.7363 -39.3066 C 55.2734 -38.623 56.1523 -38.3301 57.0801 -38.3301 C 58.8867 -38.3301 60.3516 -39.6973 60.3516 -41.5527 C 60.3516 -42.4316 60.0098 -43.2617 59.4238 -43.8477 L 46.3867 -57.5684 C 45.5566 -58.4473 44.5312 -58.8379 43.5059 -58.8379 C 42.5781 -58.8379 41.6504 -58.4961 40.7227 -57.5684 L 27.6367 -43.8477 C 27.0508 -43.2617 26.7578 -42.4316 26.7578 -41.5527 C 26.7578 -39.6973 28.125 -38.3301 29.9316 -38.3301 C 30.9082 -38.3301 31.7383 -38.623 32.3242 -39.3066 L 36.0352 -43.5059 L 40.5273 -48.9258 L 40.1855 -41.4551 L 40.1855 -16.1621 C 40.1855 -14.2578 41.6016 -12.8418 43.5059 -12.8418 Z M 73.4375 -12.8418 C 74.4141 -12.8418 75.4883 -13.2812 76.3184 -14.1602 L 89.3555 -27.8809 C 89.9414 -28.4668 90.2344 -29.248 90.2344 -30.1758 C 90.2344 -31.9824 88.8184 -33.3984 87.0117 -33.3984 C 86.0352 -33.3984 85.1562 -33.0566 84.668 -32.4219 L 81.0547 -28.1738 L 76.416 -22.7051 L 76.7578 -30.2246 L 76.7578 -55.5176 C 76.7578 -57.4707 75.3906 -58.8379 73.4375 -58.8379 C 71.5332 -58.8379 70.1172 -57.4707 70.1172 -55.5176 L 70.1172 -30.2246 L 70.459 -22.8027 L 65.918 -28.1738 L 62.207 -32.4219 C 61.6699 -33.0566 60.8398 -33.3984 59.8633 -33.3984 C 58.0566 -33.3984 56.6895 -31.9824 56.6895 -30.1758 C 56.6895 -29.248 56.9336 -28.4668 57.5684 -27.8809 L 70.6543 -14.1602 C 71.5332 -13.2324 72.5098 -12.8418 73.4375 -12.8418 Z"/>
  </g>
  <g id="Light-M" transform="matrix(1 0 0 1 1095.42 1126)">
   <path d="M 57.7148 13.7695 C 84.5215 13.7695 106.689 -8.39844 106.689 -35.2051 C 106.689 -62.0117 84.5215 -84.1797 57.666 -84.1797 C 30.8594 -84.1797 8.74023 -62.0117 8.74023 -35.2051 C 8.74023 -8.39844 30.9082 13.7695 57.7148 13.7695 Z M 57.7148 7.4707 C 34.082 7.4707 15.0879 -11.5723 15.0879 -35.2051 C 15.0879 -58.8379 34.082 -77.832 57.666 -77.832 C 81.2988 -77.832 100.342 -58.8379 100.391 -35.2051 C 100.391 -11.5723 81.3477 7.4707 57.7148 7.4707 Z M 42.7734 -12.4512 C 44.2871 -12.4512 45.4102 -13.5254 45.4102 -15.0879 L 45.4102 -44.1895 L 45.1172 -51.3672 L 50.3418 -45.6055 L 55.5176 -40.0391 C 55.957 -39.502 56.6406 -39.2578 57.373 -39.2578 C 58.8379 -39.2578 59.9121 -40.332 59.9121 -41.748 C 59.9121 -42.4805 59.668 -43.1152 59.2285 -43.5547 L 44.9707 -58.252 C 44.3359 -58.9355 43.5059 -59.2773 42.7734 -59.2773 C 42.041 -59.2773 41.3086 -58.9844 40.625 -58.252 L 26.3184 -43.5547 C 25.8789 -43.1152 25.6348 -42.4805 25.6348 -41.748 C 25.6348 -40.332 26.709 -39.2578 28.125 -39.2578 C 28.9062 -39.2578 29.541 -39.502 30.0293 -40.0391 L 35.2539 -45.6055 L 40.3809 -51.3184 L 40.1367 -44.1895 L 40.1367 -15.0879 C 40.1367 -13.5254 41.2109 -12.4512 42.7734 -12.4512 Z M 72.6562 -12.4512 C 73.4375 -12.4512 74.2188 -12.7441 74.8535 -13.4277 L 89.1113 -28.125 C 89.5996 -28.6133 89.8438 -29.1992 89.8438 -29.9316 C 89.8438 -31.3965 88.7207 -32.4707 87.3047 -32.4707 C 86.5723 -32.4707 85.8887 -32.1777 85.4492 -31.6406 L 80.2734 -26.123 L 75.0488 -20.3125 L 75.293 -27.5391 L 75.293 -56.6406 C 75.293 -58.2031 74.2188 -59.2773 72.6562 -59.2773 C 71.1426 -59.2773 70.0195 -58.2031 70.0195 -56.6406 L 70.0195 -27.5391 L 70.3125 -20.4102 L 65.1855 -26.123 L 59.9121 -31.6406 C 59.4727 -32.1777 58.8379 -32.4707 58.0566 -32.4707 C 56.6406 -32.4707 55.5664 -31.3965 55.5664 -29.9316 C 55.5664 -29.1992 55.7617 -28.6133 56.25 -28.125 L 70.5566 -13.4277 C 71.1914 -12.7441 71.9238 -12.4512 72.6562 -12.4512 Z"/>
  </g>
  <g id="Thin-M" transform="matrix(1 0 0 1 799.806 1126)">
   <path d="M 56.6406 12.7441 C 82.9102 12.7441 104.492 -8.83789 104.492 -35.1562 C 104.492 -61.4746 82.9102 -83.0566 56.5918 -83.0566 C 30.3223 -83.0566 8.74023 -61.4746 8.74023 -35.1562 C 8.74023 -8.83789 30.3223 12.7441 56.6406 12.7441 Z M 56.6406 8.98438 C 32.2266 8.98438 12.4512 -10.791 12.4512 -35.1562 C 12.4512 -59.5215 32.2266 -79.2969 56.5918 -79.2969 C 81.0059 -79.2969 100.781 -59.5215 100.781 -35.1562 C 100.781 -10.791 81.0059 8.98438 56.6406 8.98438 Z M 41.748 -11.9141 C 42.7734 -11.9141 43.457 -12.5977 43.457 -13.623 L 43.457 -47.8027 L 43.3105 -54.541 L 49.3652 -48.3398 L 56.543 -41.0156 C 56.9336 -40.625 57.2754 -40.4785 57.8125 -40.4785 C 58.6914 -40.4785 59.4238 -41.1621 59.4238 -42.041 C 59.4238 -42.5293 59.2285 -42.8711 58.9355 -43.2129 L 43.0664 -59.2285 C 42.6758 -59.6191 42.1875 -59.8145 41.748 -59.8145 C 41.3086 -59.8145 40.8691 -59.6191 40.4785 -59.2285 L 24.6094 -43.2129 C 24.3164 -42.8711 24.1699 -42.5293 24.1699 -42.041 C 24.1699 -41.1621 24.8535 -40.4785 25.7812 -40.4785 C 26.2695 -40.4785 26.6113 -40.625 27.002 -41.0156 L 34.2285 -48.3398 L 40.1855 -54.4434 L 40.0391 -47.8027 L 40.0391 -13.623 C 40.0391 -12.5977 40.7715 -11.9141 41.748 -11.9141 Z M 71.6797 -11.9141 C 72.1191 -11.9141 72.6074 -12.0605 72.9492 -12.4512 L 88.8184 -28.4668 C 89.1602 -28.8086 89.3066 -29.1504 89.3066 -29.6387 C 89.3066 -30.5176 88.623 -31.25 87.6953 -31.25 C 87.207 -31.25 86.8164 -31.0547 86.4746 -30.6641 L 79.248 -23.3398 L 73.2422 -17.1875 L 73.3887 -23.9258 L 73.3887 -58.0566 C 73.3887 -59.1309 72.7051 -59.8145 71.6797 -59.8145 C 70.6543 -59.8145 69.9219 -59.1309 69.9219 -58.0566 L 69.9219 -23.9258 L 70.1172 -17.2363 L 64.1113 -23.3398 L 56.8848 -30.6641 C 56.543 -31.0547 56.1523 -31.25 55.6641 -31.25 C 54.7363 -31.25 54.0527 -30.5176 54.0527 -29.6387 C 54.0527 -29.1504 54.1992 -28.8086 54.541 -28.4668 L 70.4102 -12.4512 C 70.752 -12.0605 71.2402 -11.9141 71.6797 -11.9141 Z"/>
  </g>
  <g id="Ultralight-M" transform="matrix(1 0 0 1 503.656 1126)">
   <path d="M 56.0547 12.207 C 82.0801 12.207 103.369 -9.08203 103.369 -35.1562 C 103.369 -61.1816 82.0801 -82.4707 56.0547 -82.4707 C 30.0293 -82.4707 8.74023 -61.1816 8.74023 -35.1562 C 8.74023 -9.08203 30.0293 12.207 56.0547 12.207 Z M 56.0547 9.81445 C 31.2988 9.81445 11.1328 -10.3516 11.1328 -35.1562 C 11.1328 -59.9121 31.2988 -80.0781 56.0547 -80.0781 C 80.8594 -80.0781 100.977 -59.9121 100.977 -35.1562 C 100.977 -10.3516 80.8594 9.81445 56.0547 9.81445 Z M 41.2109 -11.6211 C 42.041 -11.6211 42.4805 -12.1094 42.4805 -12.8906 L 42.4805 -49.6094 L 42.3828 -56.1523 L 48.8281 -49.7559 L 57.0801 -41.5527 C 57.373 -41.2109 57.6172 -41.1133 58.0078 -41.1133 C 58.6426 -41.1133 59.1309 -41.6016 59.1309 -42.1875 C 59.1309 -42.5781 59.0332 -42.7734 58.7891 -43.0176 L 42.0898 -59.7168 C 41.8457 -59.9609 41.5527 -60.1074 41.2109 -60.1074 C 40.918 -60.1074 40.625 -59.9609 40.3809 -59.7168 L 23.7305 -43.0176 C 23.4863 -42.7734 23.3887 -42.5781 23.3887 -42.1875 C 23.3887 -41.6016 23.877 -41.1133 24.5117 -41.1133 C 24.9023 -41.1133 25.1465 -41.2109 25.4395 -41.5527 L 33.6914 -49.7559 L 40.0879 -56.1035 L 39.9414 -49.6094 L 39.9414 -12.8906 C 39.9414 -12.1094 40.5273 -11.6211 41.2109 -11.6211 Z M 71.1426 -11.6211 C 71.4355 -11.6211 71.7285 -11.7188 71.9727 -11.9629 L 88.6719 -28.6621 C 88.916 -28.9062 89.0625 -29.1504 89.0625 -29.4922 C 89.0625 -30.127 88.5742 -30.6152 87.8906 -30.6152 C 87.5488 -30.6152 87.3047 -30.4688 87.0117 -30.1758 L 78.7598 -21.9238 L 72.3145 -15.5762 L 72.4121 -22.0703 L 72.4121 -58.8379 C 72.4121 -59.6191 71.9238 -60.1074 71.1426 -60.1074 C 70.4102 -60.1074 69.873 -59.6191 69.873 -58.8379 L 69.873 -22.0703 L 70.0195 -15.625 L 63.623 -21.9238 L 55.3711 -30.1758 C 55.0293 -30.4688 54.834 -30.6152 54.4434 -30.6152 C 53.8086 -30.6152 53.3203 -30.127 53.3203 -29.4922 C 53.3203 -29.1504 53.418 -28.9062 53.6621 -28.6621 L 70.3125 -11.9629 C 70.5566 -11.7188 70.8496 -11.6211 71.1426 -11.6211 Z"/>
  </g>
  <g id="Black-S" transform="matrix(1 0 0 1 2884.57 696)">
   <path d="M 48.8281 6.78711 C 71.9727 6.78711 90.8203 -12.0605 90.8203 -35.2051 C 90.8203 -58.3496 71.9727 -77.1973 48.8281 -77.1973 C 25.6836 -77.1973 6.83594 -58.3496 6.83594 -35.2051 C 6.83594 -12.0605 25.6836 6.78711 48.8281 6.78711 Z M 48.8281 -7.37305 C 33.4473 -7.37305 20.9961 -19.8242 20.9961 -35.2051 C 20.9961 -50.5859 33.4473 -63.0371 48.8281 -63.0371 C 64.209 -63.0371 76.6602 -50.5859 76.6602 -35.2051 C 76.6602 -19.8242 64.209 -7.37305 48.8281 -7.37305 Z M 37.6953 -18.2617 C 40.1855 -18.2617 42.0898 -19.9219 42.0898 -22.4121 L 42.0898 -36.8164 L 41.2109 -41.2598 L 42.8223 -38.3301 L 43.7988 -37.0605 C 44.4824 -36.1816 45.5078 -35.8398 46.582 -35.8398 C 48.6816 -35.8398 50.0488 -37.3535 50.0488 -39.502 C 50.0488 -40.5273 49.5605 -41.4062 48.877 -42.1875 L 41.0156 -50.8301 C 40.1367 -51.7578 39.0625 -52.2461 37.6953 -52.2461 C 36.3281 -52.2461 35.2539 -51.7578 34.375 -50.8301 L 26.5137 -42.1875 C 25.8301 -41.4062 25.3418 -40.5273 25.3418 -39.502 C 25.3418 -37.3535 26.709 -35.8398 28.8086 -35.8398 C 29.8828 -35.8398 30.9082 -36.1816 31.5918 -37.0605 L 32.5684 -38.3301 L 34.1797 -41.2598 L 33.3008 -36.8164 L 33.3008 -22.4121 C 33.3008 -19.9219 35.2051 -18.2617 37.6953 -18.2617 Z M 60.2539 -18.2617 C 61.6211 -18.2617 62.6953 -18.75 63.5742 -19.6777 L 71.4355 -28.3203 C 72.1191 -29.1016 72.6074 -29.9805 72.6074 -31.0059 C 72.6074 -33.1543 71.2402 -34.668 69.1406 -34.668 C 68.0664 -34.668 67.041 -34.3262 66.3574 -33.4473 L 65.3809 -32.1777 L 63.7695 -29.248 L 64.6484 -33.6914 L 64.6484 -48.0957 C 64.6484 -50.5859 62.7441 -52.2461 60.2539 -52.2461 C 57.7637 -52.2461 55.8594 -50.5859 55.8594 -48.0957 L 55.8594 -33.6914 L 56.7383 -29.248 L 55.127 -32.1777 L 54.1504 -33.4473 C 53.4668 -34.3262 52.4414 -34.668 51.3672 -34.668 C 49.2676 -34.668 47.9004 -33.1543 47.9004 -31.0059 C 47.9004 -29.9805 48.3887 -29.1016 49.0723 -28.3203 L 56.9336 -19.6777 C 57.8125 -18.75 58.8867 -18.2617 60.2539 -18.2617 Z"/>
  </g>
  <g id="Heavy-S" transform="matrix(1 0 0 1 2588.47 696)">
   <path d="M 48.2422 6.15234 C 70.9961 6.15234 89.5996 -12.4512 89.5996 -35.2051 C 89.5996 -57.959 70.9961 -76.6113 48.1934 -76.6113 C 25.4395 -76.6113 6.83594 -57.959 6.83594 -35.2051 C 6.83594 -12.4512 25.4395 6.15234 48.2422 6.15234 Z M 48.2422 -6.39648 C 32.2754 -6.39648 19.4336 -19.2871 19.4336 -35.2051 C 19.4336 -51.1719 32.2754 -64.0137 48.1934 -64.0137 C 64.1602 -64.0137 77.002 -51.1719 77.0508 -35.2051 C 77.0508 -19.2871 64.1602 -6.39648 48.2422 -6.39648 Z M 36.9141 -18.1641 C 39.209 -18.1641 40.9668 -19.7266 40.9668 -22.0215 L 40.9668 -37.3047 L 40.2344 -42.0898 L 42.2363 -38.8672 L 43.5059 -37.3047 C 44.1406 -36.4746 45.0684 -36.1816 46.0938 -36.1816 C 48.0957 -36.1816 49.4141 -37.5977 49.4141 -39.6484 C 49.4141 -40.625 48.9746 -41.4551 48.3398 -42.1875 L 40.0879 -51.1719 C 39.209 -52.0996 38.1836 -52.5391 36.9141 -52.5391 C 35.6934 -52.5391 34.668 -52.0996 33.7891 -51.1719 L 25.4883 -42.1875 C 24.8535 -41.4551 24.4141 -40.625 24.4141 -39.6484 C 24.4141 -37.5977 25.7812 -36.1816 27.7344 -36.1816 C 28.7598 -36.1816 29.7363 -36.4746 30.3711 -37.3047 L 31.6406 -38.8672 L 33.6426 -42.0898 L 32.8613 -37.3047 L 32.8613 -22.0215 C 32.8613 -19.7266 34.6191 -18.1641 36.9141 -18.1641 Z M 59.7168 -18.1641 C 60.9375 -18.1641 62.0117 -18.6523 62.8418 -19.5312 L 71.0938 -28.5645 C 71.7773 -29.2969 72.2168 -30.127 72.2168 -31.1035 C 72.2168 -33.1055 70.8496 -34.5703 68.8965 -34.5703 C 67.8711 -34.5703 66.8945 -34.2285 66.2598 -33.4473 L 65.0391 -31.8359 L 62.9883 -28.6133 L 63.7207 -33.4473 L 63.7207 -48.6816 C 63.7207 -50.9766 62.0117 -52.5391 59.7168 -52.5391 C 57.373 -52.5391 55.6641 -50.9766 55.6641 -48.6816 L 55.6641 -33.4473 L 56.3965 -28.6133 L 54.3945 -31.8359 L 53.125 -33.4473 C 52.4902 -34.2285 51.5625 -34.5703 50.5371 -34.5703 C 48.5352 -34.5703 47.2168 -33.1055 47.2168 -31.1035 C 47.2168 -30.127 47.6074 -29.2969 48.291 -28.5645 L 56.5918 -19.5312 C 57.4219 -18.6523 58.4473 -18.1641 59.7168 -18.1641 Z"/>
  </g>
  <g id="Bold-S" transform="matrix(1 0 0 1 2292.44 696)">
   <path d="M 47.5586 5.46875 C 69.873 5.46875 88.2324 -12.8906 88.2324 -35.2051 C 88.2324 -57.5684 69.873 -75.9277 47.5098 -75.9277 C 25.1953 -75.9277 6.83594 -57.5684 6.83594 -35.2051 C 6.83594 -12.8906 25.1953 5.46875 47.5586 5.46875 Z M 47.5586 -5.32227 C 30.957 -5.32227 17.6758 -18.6523 17.6758 -35.2051 C 17.6758 -51.8066 30.957 -65.1367 47.5098 -65.1367 C 64.1113 -65.1367 77.4414 -51.8066 77.4414 -35.2051 C 77.4414 -18.6523 64.1113 -5.32227 47.5586 -5.32227 Z M 36.084 -18.0664 C 38.1836 -18.0664 39.7461 -19.5312 39.7461 -21.6309 L 39.7461 -37.793 L 39.1602 -43.0664 L 41.6016 -39.502 L 43.1641 -37.5488 C 43.7012 -36.8164 44.6289 -36.5234 45.5566 -36.5234 C 47.4121 -36.5234 48.7305 -37.8906 48.7305 -39.7949 C 48.7305 -40.7227 48.3398 -41.5039 47.7539 -42.1387 L 39.0137 -51.6113 C 38.2324 -52.4414 37.207 -52.8809 36.084 -52.8809 C 34.9609 -52.8809 33.9844 -52.4902 33.1543 -51.6113 L 24.3652 -42.1387 C 23.7793 -41.5039 23.4375 -40.7227 23.4375 -39.7949 C 23.4375 -37.8906 24.707 -36.5234 26.5625 -36.5234 C 27.5391 -36.5234 28.418 -36.8164 29.0039 -37.5488 L 30.5664 -39.502 L 33.0078 -43.0176 L 32.4219 -37.793 L 32.4219 -21.6309 C 32.4219 -19.5312 33.9844 -18.0664 36.084 -18.0664 Z M 59.082 -18.0664 C 60.2051 -18.0664 61.2305 -18.5059 62.0117 -19.3848 L 70.752 -28.8086 C 71.3379 -29.4922 71.7285 -30.2734 71.7285 -31.2012 C 71.7285 -33.1055 70.4102 -34.4727 68.5547 -34.4727 C 67.627 -34.4727 66.6992 -34.1309 66.1621 -33.3984 L 64.5996 -31.4453 L 62.1582 -27.9297 L 62.7441 -33.1543 L 62.7441 -49.3652 C 62.7441 -51.4648 61.1816 -52.8809 59.082 -52.8809 C 56.9824 -52.8809 55.4199 -51.4648 55.4199 -49.3652 L 55.4199 -33.1543 L 56.0059 -27.9297 L 53.5645 -31.4453 L 52.002 -33.3984 C 51.416 -34.1309 50.5371 -34.4727 49.5605 -34.4727 C 47.7051 -34.4727 46.4355 -33.1055 46.4355 -31.2012 C 46.4355 -30.2734 46.7773 -29.4922 47.3633 -28.8086 L 56.1523 -19.3848 C 56.9824 -18.5059 57.959 -18.0664 59.082 -18.0664 Z"/>
  </g>
  <g id="Semibold-S" transform="matrix(1 0 0 1 1996.2 696)">
   <path d="M 47.0703 4.98047 C 69.0918 4.98047 87.3047 -13.1836 87.3047 -35.2539 C 87.3047 -57.2754 69.0918 -75.4883 47.0215 -75.4883 C 25 -75.4883 6.83594 -57.2754 6.83594 -35.2539 C 6.83594 -13.1836 25.0488 4.98047 47.0703 4.98047 Z M 47.0703 -4.58984 C 30.0781 -4.58984 16.4551 -18.2129 16.4551 -35.2539 C 16.4551 -52.2461 30.0293 -65.8691 47.0215 -65.8691 C 64.0625 -65.8691 77.6855 -52.2461 77.7344 -35.2539 C 77.7344 -18.2129 64.0625 -4.58984 47.0703 -4.58984 Z M 35.498 -18.0176 C 37.4512 -18.0176 38.8672 -19.3848 38.8672 -21.3379 L 38.8672 -38.1836 L 38.3789 -43.7012 L 41.1621 -39.9414 L 42.9199 -37.7441 C 43.4082 -37.0605 44.2871 -36.7676 45.2148 -36.7676 C 46.9727 -36.7676 48.291 -38.0859 48.291 -39.8926 C 48.291 -40.7715 47.9492 -41.5039 47.3633 -42.1387 L 38.2812 -51.8555 C 37.5 -52.7344 36.5234 -53.125 35.498 -53.125 C 34.4727 -53.125 33.5449 -52.7344 32.7148 -51.8555 L 23.6328 -42.1387 C 23.0469 -41.5039 22.7051 -40.7715 22.7051 -39.8926 C 22.7051 -38.0859 23.9746 -36.7676 25.7324 -36.7676 C 26.6602 -36.7676 27.4902 -37.0605 28.0762 -37.7441 L 29.834 -39.9414 L 32.5684 -43.6523 L 32.0801 -38.1836 L 32.0801 -21.3379 C 32.0801 -19.3848 33.5449 -18.0176 35.498 -18.0176 Z M 58.6426 -18.0176 C 59.668 -18.0176 60.6445 -18.4082 61.4746 -19.2871 L 70.5078 -29.0039 C 71.0938 -29.6387 71.4355 -30.3711 71.4355 -31.25 C 71.4355 -33.0566 70.1172 -34.375 68.3594 -34.375 C 67.4316 -34.375 66.6016 -34.082 66.0645 -33.3984 L 64.3555 -31.2012 L 61.5723 -27.4414 L 62.0117 -32.959 L 62.0117 -49.8047 C 62.0117 -51.7578 60.5957 -53.125 58.6426 -53.125 C 56.6895 -53.125 55.2734 -51.7578 55.2734 -49.8047 L 55.2734 -32.959 L 55.7129 -27.4414 L 53.0273 -31.2012 L 51.2207 -33.3984 C 50.6836 -34.082 49.8535 -34.375 48.9258 -34.375 C 47.168 -34.375 45.8984 -33.0566 45.8984 -31.25 C 45.8984 -30.3711 46.1914 -29.6387 46.7773 -29.0039 L 55.9082 -19.2871 C 56.6895 -18.4082 57.6172 -18.0176 58.6426 -18.0176 Z"/>
  </g>
  <g id="Medium-S" transform="matrix(1 0 0 1 1699.83 696)">
   <path d="M 46.7285 4.63867 C 68.5547 4.63867 86.6211 -13.4277 86.6211 -35.2539 C 86.6211 -57.0312 68.5059 -75.1465 46.6797 -75.1465 C 24.8535 -75.1465 6.83594 -57.0312 6.83594 -35.2539 C 6.83594 -13.4277 24.9023 4.63867 46.7285 4.63867 Z M 46.7285 -4.00391 C 29.3945 -4.00391 15.5273 -17.9199 15.5273 -35.2539 C 15.5273 -52.5879 29.3457 -66.4551 46.6797 -66.4551 C 64.0137 -66.4551 77.8809 -52.5879 77.9297 -35.2539 C 77.9785 -17.9199 64.0625 -4.00391 46.7285 -4.00391 Z M 35.0586 -17.9688 C 36.8652 -17.9688 38.2324 -19.2871 38.2324 -21.0938 L 38.2324 -38.4277 L 37.8418 -44.1895 L 40.8203 -40.2832 L 42.7246 -37.8906 C 43.2129 -37.2559 44.043 -36.9629 44.9219 -36.9629 C 46.6309 -36.9629 47.9004 -38.2324 47.9004 -39.9902 C 47.9004 -40.8203 47.6074 -41.5527 47.0703 -42.0898 L 37.7441 -52.0996 C 36.9629 -52.8809 36.0352 -53.3203 35.0586 -53.3203 C 34.082 -53.3203 33.2031 -52.9297 32.4219 -52.0996 L 23.0469 -42.0898 C 22.4609 -41.5527 22.2168 -40.8203 22.2168 -39.9902 C 22.2168 -38.2324 23.4375 -36.9629 25.1465 -36.9629 C 26.0254 -36.9629 26.8066 -37.2559 27.3438 -37.8906 L 29.2969 -40.2832 L 32.2266 -44.1895 L 31.8359 -38.4277 L 31.8359 -21.0938 C 31.8359 -19.2871 33.2031 -17.9688 35.0586 -17.9688 Z M 58.3008 -17.9688 C 59.2773 -17.9688 60.2539 -18.3594 61.0352 -19.1895 L 70.3125 -29.1504 C 70.8984 -29.7363 71.1914 -30.4688 71.1914 -31.2988 C 71.1914 -33.0566 69.9219 -34.3262 68.2129 -34.3262 C 67.334 -34.3262 66.5039 -34.0332 66.0156 -33.3984 L 64.1113 -31.0059 L 61.1328 -27.0508 L 61.5234 -32.8125 L 61.5234 -50.1465 C 61.5234 -52.002 60.1562 -53.3203 58.3008 -53.3203 C 56.4941 -53.3203 55.127 -52.002 55.127 -50.1465 L 55.127 -32.8125 L 55.5176 -27.0996 L 52.5879 -31.0059 L 50.6348 -33.3984 C 50.0977 -34.0332 49.3164 -34.3262 48.4375 -34.3262 C 46.7285 -34.3262 45.459 -33.0566 45.459 -31.2988 C 45.459 -30.4688 45.752 -29.7363 46.2891 -29.1504 L 55.6641 -19.1895 C 56.4941 -18.3105 57.373 -17.9688 58.3008 -17.9688 Z"/>
  </g>
  <g id="Regular-S" transform="matrix(1 0 0 1 1403.58 696)">
   <path d="M 46.2402 4.15039 C 67.7734 4.15039 85.6934 -13.7207 85.6934 -35.2539 C 85.6934 -56.7871 67.7246 -74.6582 46.1914 -74.6582 C 24.707 -74.6582 6.83594 -56.7871 6.83594 -35.2539 C 6.83594 -13.7207 24.7559 4.15039 46.2402 4.15039 Z M 46.2402 -3.27148 C 28.5156 -3.27148 14.3555 -17.4805 14.3555 -35.2539 C 14.3555 -53.0273 28.4668 -67.2363 46.1914 -67.2363 C 63.9648 -67.2363 78.1738 -53.0273 78.2227 -35.2539 C 78.2715 -17.4805 64.0137 -3.27148 46.2402 -3.27148 Z M 34.4727 -17.9199 C 36.1328 -17.9199 37.3535 -19.1406 37.3535 -20.8496 L 37.3535 -38.8184 L 37.1094 -44.873 L 40.4297 -40.7227 L 42.4805 -38.0371 C 42.9199 -37.5 43.75 -37.207 44.5801 -37.207 C 46.1914 -37.207 47.4609 -38.4277 47.4609 -40.0879 C 47.4609 -40.8691 47.168 -41.6016 46.6309 -42.0898 L 37.0117 -52.3438 C 36.2793 -53.1738 35.3516 -53.5156 34.4727 -53.5156 C 33.5938 -53.5156 32.7637 -53.2227 31.9824 -52.3438 L 22.2656 -42.0898 C 21.7285 -41.6016 21.4844 -40.8691 21.4844 -40.0879 C 21.4844 -38.4277 22.7051 -37.207 24.3164 -37.207 C 25.1953 -37.207 25.9277 -37.5 26.416 -38.0371 L 28.6133 -40.7227 L 31.8359 -44.8242 L 31.543 -38.8184 L 31.543 -20.8496 C 31.543 -19.1406 32.7637 -17.9199 34.4727 -17.9199 Z M 57.9102 -17.9199 C 58.7891 -17.9199 59.7168 -18.2617 60.4492 -19.0918 L 70.0684 -29.3457 C 70.6055 -29.834 70.8984 -30.5664 70.8984 -31.3477 C 70.8984 -33.0078 69.6289 -34.2285 68.0176 -34.2285 C 67.1875 -34.2285 66.3574 -33.9355 65.918 -33.3984 L 63.8672 -30.7129 L 60.5469 -26.5625 L 60.791 -32.6172 L 60.791 -50.5859 C 60.791 -52.2949 59.5703 -53.5156 57.9102 -53.5156 C 56.2012 -53.5156 54.9805 -52.2949 54.9805 -50.5859 L 54.9805 -32.6172 L 55.2734 -26.6113 L 52.0508 -30.7129 L 49.8535 -33.3984 C 49.3652 -33.9355 48.6328 -34.2285 47.7539 -34.2285 C 46.1426 -34.2285 44.9219 -33.0078 44.9219 -31.3477 C 44.9219 -30.5664 45.166 -29.834 45.7031 -29.3457 L 55.4199 -19.0918 C 56.2012 -18.2129 57.0312 -17.9199 57.9102 -17.9199 Z"/>
  </g>
  <g id="Light-S" transform="matrix(1 0 0 1 1107.6 696)">
   <path d="M 45.5078 3.4668 C 66.6992 3.4668 84.2285 -14.0625 84.2285 -35.2051 C 84.2285 -56.3965 66.6504 -73.9258 45.5078 -73.9258 C 24.3164 -73.9258 6.83594 -56.3965 6.83594 -35.2051 C 6.83594 -14.0625 24.3652 3.4668 45.5078 3.4668 Z M 45.5078 -2.24609 C 27.2461 -2.24609 12.5977 -16.9434 12.5977 -35.2051 C 12.5977 -53.5156 27.1973 -68.2129 45.5078 -68.2129 C 63.7695 -68.2129 78.4668 -53.5156 78.5156 -35.2051 C 78.5156 -16.9434 63.8184 -2.24609 45.5078 -2.24609 Z M 33.7891 -17.5293 C 35.1562 -17.5293 36.084 -18.5059 36.084 -19.873 L 36.084 -41.2109 L 35.8887 -46.9727 L 39.7461 -42.5293 L 43.2129 -38.7207 C 43.5547 -38.2324 44.1895 -38.0371 44.8242 -38.0371 C 46.0938 -38.0371 47.1191 -38.9648 47.1191 -40.2832 C 47.1191 -40.918 46.875 -41.4551 46.4355 -41.8457 L 35.7422 -53.0273 C 35.2051 -53.6133 34.4727 -53.9062 33.7891 -53.9062 C 33.1055 -53.9062 32.4707 -53.6621 31.8848 -53.0273 L 21.0938 -41.8457 C 20.7031 -41.4551 20.5078 -40.918 20.5078 -40.2832 C 20.5078 -38.9648 21.4844 -38.0371 22.7539 -38.0371 C 23.3887 -38.0371 23.9746 -38.2324 24.3652 -38.7207 L 27.8809 -42.5293 L 31.6895 -46.9238 L 31.4453 -41.2109 L 31.4453 -19.873 C 31.4453 -18.5059 32.4219 -17.5293 33.7891 -17.5293 Z M 57.2266 -17.5293 C 57.9102 -17.5293 58.6426 -17.8223 59.1797 -18.4082 L 69.873 -29.5898 C 70.3125 -29.9805 70.5566 -30.5176 70.5566 -31.1523 C 70.5566 -32.4707 69.5312 -33.3984 68.2617 -33.3984 C 67.627 -33.3984 66.9922 -33.2031 66.6504 -32.7148 L 63.1836 -28.9062 L 59.3262 -24.4629 L 59.5215 -30.2246 L 59.5215 -51.5625 C 59.5215 -52.9297 58.5938 -53.9062 57.2266 -53.9062 C 55.8594 -53.9062 54.8828 -52.9297 54.8828 -51.5625 L 54.8828 -30.2246 L 55.127 -24.5117 L 51.3184 -28.9062 L 47.8027 -32.7148 C 47.4121 -33.2031 46.8262 -33.3984 46.1914 -33.3984 C 44.9219 -33.3984 43.9453 -32.4707 43.9453 -31.1523 C 43.9453 -30.5176 44.1406 -29.9805 44.5312 -29.5898 L 55.3223 -18.4082 C 55.9082 -17.7734 56.543 -17.5293 57.2266 -17.5293 Z"/>
  </g>
  <g id="Thin-S" transform="matrix(1 0 0 1 811.867 696)">
   <path d="M 44.5801 2.53906 C 65.2832 2.53906 82.2754 -14.4531 82.2754 -35.2051 C 82.2754 -55.9082 65.2344 -72.9004 44.5312 -72.9004 C 23.8281 -72.9004 6.83594 -55.9082 6.83594 -35.2051 C 6.83594 -14.4531 23.877 2.53906 44.5801 2.53906 Z M 44.5801 -0.878906 C 25.5859 -0.878906 10.2539 -16.2109 10.2539 -35.2051 C 10.2539 -54.1504 25.5859 -69.4824 44.5312 -69.4824 C 63.5254 -69.4824 78.8574 -54.1504 78.8574 -35.2051 C 78.8574 -16.2109 63.5254 -0.878906 44.5801 -0.878906 Z M 32.9102 -17.041 C 33.7891 -17.041 34.4238 -17.6758 34.4238 -18.6035 L 34.4238 -44.3848 L 34.2773 -49.7559 L 38.8672 -44.9707 L 44.0918 -39.5996 C 44.3848 -39.2578 44.7266 -39.1113 45.166 -39.1113 C 45.9961 -39.1113 46.6309 -39.6973 46.6309 -40.5273 C 46.6309 -40.918 46.4844 -41.2598 46.1914 -41.5527 L 34.082 -53.8574 C 33.7402 -54.1992 33.3008 -54.3945 32.9102 -54.3945 C 32.4707 -54.3945 32.0801 -54.1992 31.7383 -53.8574 L 19.6289 -41.5527 C 19.3359 -41.2598 19.1895 -40.918 19.1895 -40.5273 C 19.1895 -39.6973 19.8242 -39.1113 20.6055 -39.1113 C 21.0449 -39.1113 21.3867 -39.2578 21.7285 -39.5996 L 27.002 -44.9707 L 31.4941 -49.707 L 31.3477 -44.3848 L 31.3477 -18.6035 C 31.3477 -17.6758 32.0312 -17.041 32.9102 -17.041 Z M 56.3477 -17.041 C 56.7383 -17.041 57.1777 -17.2363 57.5195 -17.5781 L 69.6289 -29.8828 C 69.9219 -30.1758 70.0684 -30.5176 70.0684 -30.9082 C 70.0684 -31.7383 69.4336 -32.3242 68.6035 -32.3242 C 68.1641 -32.3242 67.8223 -32.1777 67.5293 -31.8359 L 62.3047 -26.4648 L 57.7148 -21.6797 L 57.8613 -27.0508 L 57.8613 -52.832 C 57.8613 -53.7598 57.2266 -54.3945 56.3477 -54.3945 C 55.4688 -54.3945 54.7852 -53.7598 54.7852 -52.832 L 54.7852 -27.0508 L 54.9316 -21.7285 L 50.4395 -26.4648 L 45.166 -31.8359 C 44.8242 -32.1777 44.4824 -32.3242 44.043 -32.3242 C 43.2617 -32.3242 42.627 -31.7383 42.627 -30.9082 C 42.627 -30.5176 42.7734 -30.1758 43.0664 -29.8828 L 55.1758 -17.5781 C 55.5176 -17.2363 55.9082 -17.041 56.3477 -17.041 Z"/>
  </g>
  <g id="Ultralight-S" transform="matrix(1 0 0 1 515.644 696)">
   <path d="M 44.043 2.05078 C 64.502 2.05078 81.2988 -14.6973 81.2988 -35.1562 C 81.2988 -55.6152 64.502 -72.3633 44.043 -72.3633 C 23.584 -72.3633 6.83594 -55.6152 6.83594 -35.1562 C 6.83594 -14.6973 23.584 2.05078 44.043 2.05078 Z M 44.043 -0.146484 C 24.7559 -0.146484 9.08203 -15.8691 9.08203 -35.1562 C 9.08203 -54.4434 24.7559 -70.166 44.043 -70.166 C 63.3789 -70.166 79.0527 -54.4434 79.0527 -35.1562 C 79.0527 -15.8691 63.3789 -0.146484 44.043 -0.146484 Z M 32.4219 -16.7969 C 33.1055 -16.7969 33.5449 -17.2363 33.5449 -17.9199 L 33.5449 -45.9961 L 33.4473 -51.1719 L 38.3789 -46.2402 L 44.5801 -40.0391 C 44.8242 -39.7949 45.0684 -39.6484 45.3613 -39.6484 C 45.9473 -39.6484 46.3867 -40.0879 46.3867 -40.625 C 46.3867 -40.9668 46.2891 -41.1621 46.0938 -41.4062 L 33.2031 -54.2969 C 33.0078 -54.541 32.7148 -54.6387 32.4219 -54.6387 C 32.1777 -54.6387 31.8848 -54.541 31.6406 -54.2969 L 18.8477 -41.4062 C 18.6035 -41.1621 18.5059 -40.9668 18.5059 -40.625 C 18.5059 -40.0879 18.9453 -39.6484 19.5312 -39.6484 C 19.873 -39.6484 20.0684 -39.7949 20.3125 -40.0391 L 26.5137 -46.2402 L 31.3965 -51.123 L 31.2988 -45.9961 L 31.2988 -17.9199 C 31.2988 -17.2363 31.7871 -16.7969 32.4219 -16.7969 Z M 55.8594 -16.7969 C 56.1523 -16.7969 56.4453 -16.8945 56.6406 -17.1387 L 69.5312 -30.0293 C 69.7266 -30.2734 69.8242 -30.4688 69.8242 -30.8105 C 69.8242 -31.3477 69.3848 -31.7871 68.7988 -31.7871 C 68.5059 -31.7871 68.2617 -31.6406 68.0176 -31.3965 L 61.8164 -25.1953 L 56.8848 -20.2637 L 56.9824 -25.4395 L 56.9824 -53.5156 C 56.9824 -54.1992 56.543 -54.6387 55.8594 -54.6387 C 55.2246 -54.6387 54.7363 -54.1992 54.7363 -53.5156 L 54.7363 -25.4395 L 54.834 -20.3125 L 49.9512 -25.1953 L 43.75 -31.3965 C 43.5059 -31.6406 43.3105 -31.7871 42.9688 -31.7871 C 42.3828 -31.7871 41.9434 -31.3477 41.9434 -30.8105 C 41.9434 -30.4688 42.041 -30.2734 42.2852 -30.0293 L 55.0781 -17.1387 C 55.3223 -16.8945 55.6152 -16.7969 55.8594 -16.7969 Z"/>
  </g>
 </g>
</svg>
